<mxfile host="app.diagrams.net" modified="2021-02-09T20:00:27.983Z" agent="5.0 (Windows NT 10.0; Win64; x64) AppleWebKit/537.36 (KHTML, like Gecko) Chrome/88.0.4324.150 Safari/537.36" etag="BUSU34jRXMjr_3BlO27A" version="14.2.9" type="github" pages="5">
  <diagram id="t8K_BKBWhnZSyjOZ11cl" name="Archi_GlobalAstra">
    <mxGraphModel dx="2602" dy="576" grid="1" gridSize="10" guides="1" tooltips="1" connect="1" arrows="1" fold="1" page="1" pageScale="1" pageWidth="1654" pageHeight="2336" math="0" shadow="0">
      <root>
        <mxCell id="0" />
        <mxCell id="1" parent="0" />
        <mxCell id="uNmWDIXOQhBQJinFRoVR-4" value="&lt;p style=&quot;margin: 0px ; margin-top: 6px ; text-align: center&quot;&gt;&lt;b&gt;Gestion des&lt;/b&gt;&lt;/p&gt;&lt;p style=&quot;margin: 0px ; margin-top: 6px ; text-align: center&quot;&gt;&lt;b&gt;&amp;nbsp;utilisateurs&lt;/b&gt;&lt;/p&gt;&lt;hr&gt;&lt;p style=&quot;margin: 0px ; margin-left: 8px&quot;&gt;Stocke les identifiants&lt;/p&gt;&lt;p style=&quot;margin: 0px ; margin-left: 8px&quot;&gt;&amp;nbsp;des utilisateurs autorisés&lt;br&gt;&lt;br&gt;&lt;/p&gt;" style="align=left;overflow=fill;html=1;dropTarget=0;fillColor=#fff2cc;strokeColor=#d6b656;" vertex="1" parent="1">
          <mxGeometry x="950" y="30" width="150" height="90" as="geometry" />
        </mxCell>
        <mxCell id="uNmWDIXOQhBQJinFRoVR-5" value="" style="shape=component;jettyWidth=8;jettyHeight=4;" vertex="1" parent="uNmWDIXOQhBQJinFRoVR-4">
          <mxGeometry x="1" width="20" height="20" relative="1" as="geometry">
            <mxPoint x="-24" y="4" as="offset" />
          </mxGeometry>
        </mxCell>
        <mxCell id="uNmWDIXOQhBQJinFRoVR-44" value="&lt;p style=&quot;margin: 0px ; margin-top: 6px ; text-align: center&quot;&gt;&lt;b style=&quot;font-family: &amp;#34;verdana&amp;#34; ; font-size: medium&quot;&gt;VisioConf&lt;/b&gt;&lt;br&gt;&lt;/p&gt;&lt;hr&gt;&lt;p style=&quot;margin: 0px ; margin-left: 8px&quot;&gt;Système de Visio Audio / Vidéo&lt;/p&gt;&lt;p style=&quot;margin: 0px ; margin-left: 8px&quot;&gt;Système de collaboration&lt;/p&gt;&lt;p style=&quot;margin: 0px ; margin-left: 8px&quot;&gt;&lt;br&gt;&lt;/p&gt;" style="align=left;overflow=fill;html=1;dropTarget=0;fillColor=#f8cecc;strokeColor=#b85450;strokeWidth=3;" vertex="1" parent="1">
          <mxGeometry x="660" y="20" width="180" height="70" as="geometry" />
        </mxCell>
        <mxCell id="uNmWDIXOQhBQJinFRoVR-45" value="" style="shape=component;jettyWidth=8;jettyHeight=4;" vertex="1" parent="uNmWDIXOQhBQJinFRoVR-44">
          <mxGeometry x="1" width="20" height="20" relative="1" as="geometry">
            <mxPoint x="-24" y="4" as="offset" />
          </mxGeometry>
        </mxCell>
        <mxCell id="jVSZVKWOK95pv_yEcDNA-1" value="&lt;p style=&quot;margin: 0px ; margin-top: 6px ; text-align: center&quot;&gt;&lt;b&gt;FireWall&lt;/b&gt;&lt;/p&gt;&lt;hr&gt;&lt;p style=&quot;margin: 0px ; margin-left: 8px&quot;&gt;&lt;br&gt;&lt;br&gt;&lt;/p&gt;" style="align=left;overflow=fill;html=1;dropTarget=0;fillColor=#fff2cc;strokeColor=#d6b656;" vertex="1" parent="1">
          <mxGeometry x="220" y="120" width="100" height="90" as="geometry" />
        </mxCell>
        <mxCell id="jVSZVKWOK95pv_yEcDNA-2" value="" style="shape=component;jettyWidth=8;jettyHeight=4;" vertex="1" parent="jVSZVKWOK95pv_yEcDNA-1">
          <mxGeometry x="1" width="20" height="20" relative="1" as="geometry">
            <mxPoint x="-24" y="4" as="offset" />
          </mxGeometry>
        </mxCell>
        <mxCell id="jVSZVKWOK95pv_yEcDNA-3" value="&lt;p style=&quot;margin: 0px ; margin-top: 6px ; text-align: center&quot;&gt;&lt;b&gt;Point d&#39;entrée&amp;nbsp;du&lt;/b&gt;&lt;/p&gt;&lt;p style=&quot;margin: 0px ; margin-top: 6px ; text-align: center&quot;&gt;&lt;b&gt;Service&lt;/b&gt;&lt;/p&gt;&lt;hr&gt;&lt;p style=&quot;margin: 0px ; margin-left: 8px&quot;&gt;Valide la structure des requêtes&lt;/p&gt;&lt;p style=&quot;margin: 0px ; margin-left: 8px&quot;&gt;interface utilisateur&lt;br&gt;&lt;br&gt;&lt;/p&gt;" style="align=left;overflow=fill;html=1;dropTarget=0;fillColor=#fff2cc;strokeColor=#d6b656;" vertex="1" parent="1">
          <mxGeometry x="610" y="250" width="180" height="85" as="geometry" />
        </mxCell>
        <mxCell id="jVSZVKWOK95pv_yEcDNA-4" value="" style="shape=component;jettyWidth=8;jettyHeight=4;" vertex="1" parent="jVSZVKWOK95pv_yEcDNA-3">
          <mxGeometry x="1" width="20" height="20" relative="1" as="geometry">
            <mxPoint x="-24" y="4" as="offset" />
          </mxGeometry>
        </mxCell>
        <mxCell id="jVSZVKWOK95pv_yEcDNA-5" value="" style="shape=providedRequiredInterface;html=1;verticalLabelPosition=bottom;rotation=-180;" vertex="1" parent="1">
          <mxGeometry x="350" y="170" width="20" height="20" as="geometry" />
        </mxCell>
        <mxCell id="jVSZVKWOK95pv_yEcDNA-6" value="" style="endArrow=none;html=1;entryX=1;entryY=0.5;entryDx=0;entryDy=0;entryPerimeter=0;" edge="1" parent="1" source="jVSZVKWOK95pv_yEcDNA-1" target="jVSZVKWOK95pv_yEcDNA-5">
          <mxGeometry width="50" height="50" relative="1" as="geometry">
            <mxPoint x="100" y="290" as="sourcePoint" />
            <mxPoint x="90" y="190" as="targetPoint" />
          </mxGeometry>
        </mxCell>
        <mxCell id="jVSZVKWOK95pv_yEcDNA-7" value="" style="endArrow=none;html=1;entryX=0;entryY=0.5;entryDx=0;entryDy=0;entryPerimeter=0;exitX=0.5;exitY=0;exitDx=0;exitDy=0;" edge="1" parent="1" source="TABUdnuH4LM6GMjATklA-2" target="jVSZVKWOK95pv_yEcDNA-5">
          <mxGeometry width="50" height="50" relative="1" as="geometry">
            <mxPoint x="370" y="270" as="sourcePoint" />
            <mxPoint x="180" y="294" as="targetPoint" />
          </mxGeometry>
        </mxCell>
        <mxCell id="jVSZVKWOK95pv_yEcDNA-8" value="&lt;p style=&quot;margin: 0px ; margin-top: 6px ; text-align: center&quot;&gt;&lt;b&gt;Gestion des&amp;nbsp;&lt;/b&gt;&lt;/p&gt;&lt;p style=&quot;margin: 0px ; margin-top: 6px ; text-align: center&quot;&gt;&lt;b&gt;Organisations&lt;/b&gt;&lt;/p&gt;&lt;hr&gt;&lt;p style=&quot;margin: 0px ; margin-left: 8px&quot;&gt;Stockes les infos sur les&lt;/p&gt;&lt;p style=&quot;margin: 0px ; margin-left: 8px&quot;&gt;&amp;nbsp;organisations autorisés&lt;/p&gt;&lt;p style=&quot;margin: 0px ; margin-left: 8px&quot;&gt;&lt;br&gt;&lt;br&gt;&lt;/p&gt;" style="align=left;overflow=fill;html=1;dropTarget=0;fillColor=#fff2cc;strokeColor=#d6b656;" vertex="1" parent="1">
          <mxGeometry x="950" y="390" width="150" height="100" as="geometry" />
        </mxCell>
        <mxCell id="jVSZVKWOK95pv_yEcDNA-9" value="" style="shape=component;jettyWidth=8;jettyHeight=4;" vertex="1" parent="jVSZVKWOK95pv_yEcDNA-8">
          <mxGeometry x="1" width="20" height="20" relative="1" as="geometry">
            <mxPoint x="-24" y="4" as="offset" />
          </mxGeometry>
        </mxCell>
        <mxCell id="jVSZVKWOK95pv_yEcDNA-10" value="&lt;p style=&quot;margin: 0px ; margin-top: 6px ; text-align: center&quot;&gt;&lt;b&gt;Gestion des&amp;nbsp;&lt;/b&gt;&lt;/p&gt;&lt;p style=&quot;margin: 0px ; margin-top: 6px ; text-align: center&quot;&gt;&lt;b&gt;Documents&lt;/b&gt;&lt;/p&gt;&lt;hr&gt;&lt;p style=&quot;margin: 0px ; margin-left: 8px&quot;&gt;Gestion des docs et droit&amp;nbsp;&lt;/p&gt;&lt;p style=&quot;margin: 0px ; margin-left: 8px&quot;&gt;d&#39;acces aux docs&lt;br&gt;&lt;br&gt;&lt;/p&gt;" style="align=left;overflow=fill;html=1;dropTarget=0;fillColor=#fff2cc;strokeColor=#d6b656;" vertex="1" parent="1">
          <mxGeometry x="1220" y="200" width="150" height="90" as="geometry" />
        </mxCell>
        <mxCell id="jVSZVKWOK95pv_yEcDNA-11" value="" style="shape=component;jettyWidth=8;jettyHeight=4;" vertex="1" parent="jVSZVKWOK95pv_yEcDNA-10">
          <mxGeometry x="1" width="20" height="20" relative="1" as="geometry">
            <mxPoint x="-24" y="4" as="offset" />
          </mxGeometry>
        </mxCell>
        <mxCell id="TABUdnuH4LM6GMjATklA-2" value="&lt;div style=&quot;text-align: center&quot;&gt;&lt;span&gt;&lt;b&gt;Système&lt;/b&gt;&lt;/span&gt;&lt;b&gt;&amp;nbsp;&lt;/b&gt;&lt;/div&gt;&lt;p style=&quot;margin: 0px ; margin-top: 6px ; text-align: center&quot;&gt;&lt;b&gt;d&#39;AUTHENTIFICATION&lt;/b&gt;&lt;/p&gt;&lt;hr&gt;&lt;p style=&quot;margin: 0px ; margin-left: 8px&quot;&gt;Gere l&#39;authentification&lt;/p&gt;&lt;p style=&quot;margin: 0px ; margin-left: 8px&quot;&gt;&amp;nbsp;des utilisateurs, droit d&#39;accès&lt;br&gt;&lt;br&gt;&lt;/p&gt;" style="align=left;overflow=fill;html=1;dropTarget=0;fillColor=#f8cecc;strokeColor=#b85450;strokeWidth=3;" vertex="1" parent="1">
          <mxGeometry x="320" y="275" width="180" height="85" as="geometry" />
        </mxCell>
        <mxCell id="TABUdnuH4LM6GMjATklA-3" value="" style="shape=component;jettyWidth=8;jettyHeight=4;" vertex="1" parent="TABUdnuH4LM6GMjATklA-2">
          <mxGeometry x="1" width="20" height="20" relative="1" as="geometry">
            <mxPoint x="-24" y="4" as="offset" />
          </mxGeometry>
        </mxCell>
        <mxCell id="TABUdnuH4LM6GMjATklA-5" value="&lt;p style=&quot;margin: 0px ; margin-top: 6px ; text-align: center&quot;&gt;&lt;b&gt;Gestion RH&lt;/b&gt;&lt;/p&gt;&lt;hr&gt;&lt;p style=&quot;margin: 0px ; margin-left: 8px&quot;&gt;Gestion des données RH&lt;/p&gt;&lt;p style=&quot;margin: 0px ; margin-left: 8px&quot;&gt;&amp;nbsp;Astra&lt;br&gt;&lt;/p&gt;" style="align=left;overflow=fill;html=1;dropTarget=0;fillColor=#fff2cc;strokeColor=#d6b656;" vertex="1" parent="1">
          <mxGeometry x="1230" y="390" width="180" height="70" as="geometry" />
        </mxCell>
        <mxCell id="TABUdnuH4LM6GMjATklA-6" value="" style="shape=component;jettyWidth=8;jettyHeight=4;" vertex="1" parent="TABUdnuH4LM6GMjATklA-5">
          <mxGeometry x="1" width="20" height="20" relative="1" as="geometry">
            <mxPoint x="-24" y="4" as="offset" />
          </mxGeometry>
        </mxCell>
        <mxCell id="TABUdnuH4LM6GMjATklA-7" value="&lt;p style=&quot;margin: 0px ; margin-top: 6px ; text-align: center&quot;&gt;&lt;b&gt;Email&lt;/b&gt;&lt;/p&gt;&lt;hr&gt;&lt;p style=&quot;margin: 0px ; margin-left: 8px&quot;&gt;Système email&lt;/p&gt;&lt;p style=&quot;margin: 0px ; margin-left: 8px&quot;&gt;&amp;nbsp;de l&#39;entreprise&lt;br&gt;&lt;br&gt;&lt;/p&gt;" style="align=left;overflow=fill;html=1;dropTarget=0;fillColor=#fff2cc;strokeColor=#d6b656;" vertex="1" parent="1">
          <mxGeometry x="1210" y="20" width="130" height="70" as="geometry" />
        </mxCell>
        <mxCell id="TABUdnuH4LM6GMjATklA-8" value="" style="shape=component;jettyWidth=8;jettyHeight=4;" vertex="1" parent="TABUdnuH4LM6GMjATklA-7">
          <mxGeometry x="1" width="20" height="20" relative="1" as="geometry">
            <mxPoint x="-24" y="4" as="offset" />
          </mxGeometry>
        </mxCell>
        <mxCell id="TABUdnuH4LM6GMjATklA-9" value="" style="shape=providedRequiredInterface;html=1;verticalLabelPosition=bottom;rotation=-180;" vertex="1" parent="1">
          <mxGeometry x="540" y="307.5" width="20" height="20" as="geometry" />
        </mxCell>
        <mxCell id="TABUdnuH4LM6GMjATklA-10" value="" style="endArrow=none;html=1;entryX=1;entryY=0.5;entryDx=0;entryDy=0;entryPerimeter=0;exitX=1;exitY=0.5;exitDx=0;exitDy=0;" edge="1" parent="1" source="TABUdnuH4LM6GMjATklA-2" target="TABUdnuH4LM6GMjATklA-9">
          <mxGeometry width="50" height="50" relative="1" as="geometry">
            <mxPoint x="490" y="370" as="sourcePoint" />
            <mxPoint x="520" y="150" as="targetPoint" />
          </mxGeometry>
        </mxCell>
        <mxCell id="TABUdnuH4LM6GMjATklA-11" value="" style="endArrow=none;html=1;exitX=0;exitY=0.5;exitDx=0;exitDy=0;exitPerimeter=0;fillColor=#dae8fc;strokeColor=#6c8ebf;entryX=0.004;entryY=0.35;entryDx=0;entryDy=0;entryPerimeter=0;" edge="1" parent="1" source="TABUdnuH4LM6GMjATklA-9" target="jVSZVKWOK95pv_yEcDNA-3">
          <mxGeometry width="50" height="50" relative="1" as="geometry">
            <mxPoint x="420" y="315" as="sourcePoint" />
            <mxPoint x="570" y="270" as="targetPoint" />
          </mxGeometry>
        </mxCell>
        <mxCell id="TABUdnuH4LM6GMjATklA-13" value="" style="shape=providedRequiredInterface;html=1;verticalLabelPosition=bottom;rotation=-205;" vertex="1" parent="1">
          <mxGeometry x="840" y="185" width="20" height="20" as="geometry" />
        </mxCell>
        <mxCell id="TABUdnuH4LM6GMjATklA-14" value="" style="shape=providedRequiredInterface;html=1;verticalLabelPosition=bottom;rotation=-180;" vertex="1" parent="1">
          <mxGeometry x="920" y="300" width="20" height="20" as="geometry" />
        </mxCell>
        <mxCell id="TABUdnuH4LM6GMjATklA-15" value="" style="endArrow=none;html=1;entryX=1;entryY=0.5;entryDx=0;entryDy=0;entryPerimeter=0;fillColor=#dae8fc;strokeColor=#6c8ebf;exitX=1;exitY=0.75;exitDx=0;exitDy=0;" edge="1" parent="1" source="jVSZVKWOK95pv_yEcDNA-4" target="TABUdnuH4LM6GMjATklA-13">
          <mxGeometry width="50" height="50" relative="1" as="geometry">
            <mxPoint x="760" y="250" as="sourcePoint" />
            <mxPoint x="827" y="205" as="targetPoint" />
          </mxGeometry>
        </mxCell>
        <mxCell id="TABUdnuH4LM6GMjATklA-16" value="" style="endArrow=none;html=1;exitX=0;exitY=0.5;exitDx=0;exitDy=0;entryX=0;entryY=1;entryDx=0;entryDy=0;exitPerimeter=0;" edge="1" parent="1" source="TABUdnuH4LM6GMjATklA-13" target="uNmWDIXOQhBQJinFRoVR-4">
          <mxGeometry width="50" height="50" relative="1" as="geometry">
            <mxPoint x="860" y="185" as="sourcePoint" />
            <mxPoint x="940.9369221296338" y="124.22618261740672" as="targetPoint" />
          </mxGeometry>
        </mxCell>
        <mxCell id="TABUdnuH4LM6GMjATklA-17" value="" style="endArrow=none;html=1;entryX=1;entryY=0.5;entryDx=0;entryDy=0;entryPerimeter=0;fillColor=#dae8fc;strokeColor=#6c8ebf;exitX=1;exitY=0.75;exitDx=0;exitDy=0;" edge="1" parent="1" source="jVSZVKWOK95pv_yEcDNA-3" target="TABUdnuH4LM6GMjATklA-14">
          <mxGeometry width="50" height="50" relative="1" as="geometry">
            <mxPoint x="790" y="305" as="sourcePoint" />
            <mxPoint x="870" y="265" as="targetPoint" />
          </mxGeometry>
        </mxCell>
        <mxCell id="TABUdnuH4LM6GMjATklA-18" value="" style="endArrow=none;html=1;exitX=0;exitY=0.5;exitDx=0;exitDy=0;exitPerimeter=0;entryX=0;entryY=0.5;entryDx=0;entryDy=0;" edge="1" parent="1" source="TABUdnuH4LM6GMjATklA-14" target="jVSZVKWOK95pv_yEcDNA-10">
          <mxGeometry width="50" height="50" relative="1" as="geometry">
            <mxPoint x="950.0000000000002" y="230" as="sourcePoint" />
            <mxPoint x="1110.72" y="230" as="targetPoint" />
          </mxGeometry>
        </mxCell>
        <mxCell id="TABUdnuH4LM6GMjATklA-19" value="" style="shape=providedRequiredInterface;html=1;verticalLabelPosition=bottom;rotation=-90;" vertex="1" parent="1">
          <mxGeometry x="1030" y="220" width="20" height="20" as="geometry" />
        </mxCell>
        <mxCell id="TABUdnuH4LM6GMjATklA-20" value="" style="endArrow=none;html=1;exitX=1;exitY=0.5;exitDx=0;exitDy=0;exitPerimeter=0;entryX=0.5;entryY=1;entryDx=0;entryDy=0;" edge="1" parent="1" source="TABUdnuH4LM6GMjATklA-19" target="uNmWDIXOQhBQJinFRoVR-4">
          <mxGeometry width="50" height="50" relative="1" as="geometry">
            <mxPoint x="1070" y="210" as="sourcePoint" />
            <mxPoint x="1120" y="160" as="targetPoint" />
          </mxGeometry>
        </mxCell>
        <mxCell id="TABUdnuH4LM6GMjATklA-21" value="" style="endArrow=none;html=1;entryX=0;entryY=0.5;entryDx=0;entryDy=0;entryPerimeter=0;exitX=0.5;exitY=0;exitDx=0;exitDy=0;" edge="1" parent="1" source="jVSZVKWOK95pv_yEcDNA-8" target="TABUdnuH4LM6GMjATklA-19">
          <mxGeometry width="50" height="50" relative="1" as="geometry">
            <mxPoint x="1010" y="360" as="sourcePoint" />
            <mxPoint x="1060" y="310" as="targetPoint" />
          </mxGeometry>
        </mxCell>
        <mxCell id="TABUdnuH4LM6GMjATklA-22" value="" style="shape=providedRequiredInterface;html=1;verticalLabelPosition=bottom;rotation=45;" vertex="1" parent="1">
          <mxGeometry x="1160" y="130" width="20" height="20" as="geometry" />
        </mxCell>
        <mxCell id="TABUdnuH4LM6GMjATklA-23" value="" style="shape=providedRequiredInterface;html=1;verticalLabelPosition=bottom;rotation=-30;" vertex="1" parent="1">
          <mxGeometry x="1150" y="340" width="20" height="20" as="geometry" />
        </mxCell>
        <mxCell id="TABUdnuH4LM6GMjATklA-24" value="" style="endArrow=none;html=1;entryX=0;entryY=1;entryDx=0;entryDy=0;exitX=1;exitY=0.5;exitDx=0;exitDy=0;exitPerimeter=0;" edge="1" parent="1" source="TABUdnuH4LM6GMjATklA-23" target="jVSZVKWOK95pv_yEcDNA-10">
          <mxGeometry width="50" height="50" relative="1" as="geometry">
            <mxPoint x="1250" y="300" as="sourcePoint" />
            <mxPoint x="1300" y="250" as="targetPoint" />
          </mxGeometry>
        </mxCell>
        <mxCell id="TABUdnuH4LM6GMjATklA-25" value="" style="endArrow=none;html=1;entryX=0;entryY=0.5;entryDx=0;entryDy=0;entryPerimeter=0;exitX=1;exitY=0.5;exitDx=0;exitDy=0;" edge="1" parent="1" source="jVSZVKWOK95pv_yEcDNA-8" target="TABUdnuH4LM6GMjATklA-23">
          <mxGeometry width="50" height="50" relative="1" as="geometry">
            <mxPoint x="1120" y="345" as="sourcePoint" />
            <mxPoint x="1170" y="295" as="targetPoint" />
          </mxGeometry>
        </mxCell>
        <mxCell id="TABUdnuH4LM6GMjATklA-26" value="" style="endArrow=none;html=1;entryX=0;entryY=0;entryDx=0;entryDy=0;exitX=1;exitY=0.5;exitDx=0;exitDy=0;exitPerimeter=0;" edge="1" parent="1" source="TABUdnuH4LM6GMjATklA-22" target="jVSZVKWOK95pv_yEcDNA-10">
          <mxGeometry width="50" height="50" relative="1" as="geometry">
            <mxPoint x="1010" y="360" as="sourcePoint" />
            <mxPoint x="1060" y="310" as="targetPoint" />
          </mxGeometry>
        </mxCell>
        <mxCell id="TABUdnuH4LM6GMjATklA-27" value="" style="endArrow=none;html=1;entryX=0;entryY=0.5;entryDx=0;entryDy=0;entryPerimeter=0;exitX=1;exitY=0.5;exitDx=0;exitDy=0;" edge="1" parent="1" source="uNmWDIXOQhBQJinFRoVR-4" target="TABUdnuH4LM6GMjATklA-22">
          <mxGeometry width="50" height="50" relative="1" as="geometry">
            <mxPoint x="1010" y="360" as="sourcePoint" />
            <mxPoint x="1060" y="310" as="targetPoint" />
          </mxGeometry>
        </mxCell>
        <mxCell id="TABUdnuH4LM6GMjATklA-28" value="" style="shape=providedRequiredInterface;html=1;verticalLabelPosition=bottom;rotation=90;" vertex="1" parent="1">
          <mxGeometry x="1265" y="140" width="20" height="20" as="geometry" />
        </mxCell>
        <mxCell id="TABUdnuH4LM6GMjATklA-29" value="" style="shape=providedRequiredInterface;html=1;verticalLabelPosition=bottom;rotation=-90;" vertex="1" parent="1">
          <mxGeometry x="1310" y="340" width="20" height="20" as="geometry" />
        </mxCell>
        <mxCell id="TABUdnuH4LM6GMjATklA-30" value="" style="endArrow=none;html=1;entryX=1;entryY=0.5;entryDx=0;entryDy=0;entryPerimeter=0;exitX=0.411;exitY=-0.003;exitDx=0;exitDy=0;exitPerimeter=0;" edge="1" parent="1" source="jVSZVKWOK95pv_yEcDNA-10" target="TABUdnuH4LM6GMjATklA-28">
          <mxGeometry width="50" height="50" relative="1" as="geometry">
            <mxPoint x="1460" y="185" as="sourcePoint" />
            <mxPoint x="1510" y="135" as="targetPoint" />
          </mxGeometry>
        </mxCell>
        <mxCell id="TABUdnuH4LM6GMjATklA-31" value="" style="endArrow=none;html=1;entryX=0.447;entryY=1.016;entryDx=0;entryDy=0;entryPerimeter=0;exitX=0;exitY=0.5;exitDx=0;exitDy=0;exitPerimeter=0;" edge="1" parent="1" source="TABUdnuH4LM6GMjATklA-28" target="TABUdnuH4LM6GMjATklA-7">
          <mxGeometry width="50" height="50" relative="1" as="geometry">
            <mxPoint x="1433.9799999999996" y="169.73000000000002" as="sourcePoint" />
            <mxPoint x="1430" y="110" as="targetPoint" />
          </mxGeometry>
        </mxCell>
        <mxCell id="TABUdnuH4LM6GMjATklA-32" value="" style="endArrow=none;html=1;entryX=0;entryY=0.5;entryDx=0;entryDy=0;entryPerimeter=0;exitX=0.5;exitY=0;exitDx=0;exitDy=0;" edge="1" parent="1" source="TABUdnuH4LM6GMjATklA-5" target="TABUdnuH4LM6GMjATklA-29">
          <mxGeometry width="50" height="50" relative="1" as="geometry">
            <mxPoint x="1401.9899999999996" y="469.86" as="sourcePoint" />
            <mxPoint x="1398.01" y="410.13" as="targetPoint" />
          </mxGeometry>
        </mxCell>
        <mxCell id="TABUdnuH4LM6GMjATklA-33" value="" style="endArrow=none;html=1;exitX=1;exitY=0.5;exitDx=0;exitDy=0;exitPerimeter=0;entryX=0.5;entryY=1;entryDx=0;entryDy=0;" edge="1" parent="1" source="TABUdnuH4LM6GMjATklA-29" target="jVSZVKWOK95pv_yEcDNA-10">
          <mxGeometry width="50" height="50" relative="1" as="geometry">
            <mxPoint x="1296.9999999999995" y="349.73" as="sourcePoint" />
            <mxPoint x="1293.01" y="290" as="targetPoint" />
          </mxGeometry>
        </mxCell>
        <mxCell id="TABUdnuH4LM6GMjATklA-34" value="" style="shape=providedRequiredInterface;html=1;verticalLabelPosition=bottom;rotation=60;fillColor=#d5e8d4;strokeColor=#82b366;strokeWidth=2;" vertex="1" parent="1">
          <mxGeometry x="920" y="220" width="20" height="20" as="geometry" />
        </mxCell>
        <mxCell id="fGQl1npdr08P0E_O5h-U-1" value="" style="shape=providedRequiredInterface;html=1;verticalLabelPosition=bottom;rotation=95;fillColor=#d5e8d4;strokeColor=#82b366;strokeWidth=2;" vertex="1" parent="1">
          <mxGeometry x="700" y="190" width="20" height="20" as="geometry" />
        </mxCell>
        <mxCell id="fGQl1npdr08P0E_O5h-U-2" value="" style="endArrow=none;html=1;entryX=0.401;entryY=1.024;entryDx=0;entryDy=0;entryPerimeter=0;exitX=0;exitY=0.5;exitDx=0;exitDy=0;exitPerimeter=0;fillColor=#d5e8d4;strokeColor=#82b366;strokeWidth=2;" edge="1" parent="1" source="fGQl1npdr08P0E_O5h-U-1" target="uNmWDIXOQhBQJinFRoVR-44">
          <mxGeometry width="50" height="50" relative="1" as="geometry">
            <mxPoint x="597" y="200" as="sourcePoint" />
            <mxPoint x="647" y="150" as="targetPoint" />
          </mxGeometry>
        </mxCell>
        <mxCell id="fGQl1npdr08P0E_O5h-U-3" value="" style="endArrow=none;html=1;entryX=1;entryY=0.5;entryDx=0;entryDy=0;entryPerimeter=0;fillColor=#dae8fc;strokeColor=#6c8ebf;exitX=0.573;exitY=-0.037;exitDx=0;exitDy=0;exitPerimeter=0;" edge="1" parent="1" source="jVSZVKWOK95pv_yEcDNA-3" target="fGQl1npdr08P0E_O5h-U-1">
          <mxGeometry width="50" height="50" relative="1" as="geometry">
            <mxPoint x="680" y="240" as="sourcePoint" />
            <mxPoint x="729.1800000000003" y="132.1599999999994" as="targetPoint" />
          </mxGeometry>
        </mxCell>
        <mxCell id="fGQl1npdr08P0E_O5h-U-5" value="" style="shape=providedRequiredInterface;html=1;verticalLabelPosition=bottom;rotation=15;fillColor=#d5e8d4;strokeColor=#82b366;strokeWidth=2;" vertex="1" parent="1">
          <mxGeometry x="880" y="65" width="20" height="20" as="geometry" />
        </mxCell>
        <mxCell id="fGQl1npdr08P0E_O5h-U-6" value="" style="endArrow=none;html=1;entryX=0.75;entryY=1;entryDx=0;entryDy=0;exitX=0;exitY=0.5;exitDx=0;exitDy=0;exitPerimeter=0;fillColor=#d5e8d4;strokeColor=#82b366;strokeWidth=2;" edge="1" parent="1" source="TABUdnuH4LM6GMjATklA-34" target="uNmWDIXOQhBQJinFRoVR-44">
          <mxGeometry width="50" height="50" relative="1" as="geometry">
            <mxPoint x="920" y="220" as="sourcePoint" />
            <mxPoint x="1040" y="270" as="targetPoint" />
          </mxGeometry>
        </mxCell>
        <mxCell id="fGQl1npdr08P0E_O5h-U-7" value="" style="endArrow=none;html=1;entryX=1;entryY=0.5;entryDx=0;entryDy=0;entryPerimeter=0;exitX=0.25;exitY=0;exitDx=0;exitDy=0;" edge="1" parent="1" source="jVSZVKWOK95pv_yEcDNA-8" target="TABUdnuH4LM6GMjATklA-34">
          <mxGeometry width="50" height="50" relative="1" as="geometry">
            <mxPoint x="990" y="380" as="sourcePoint" />
            <mxPoint x="830" y="370" as="targetPoint" />
          </mxGeometry>
        </mxCell>
        <mxCell id="fGQl1npdr08P0E_O5h-U-8" value="" style="endArrow=none;html=1;entryX=1;entryY=0.75;entryDx=0;entryDy=0;exitX=0;exitY=0.5;exitDx=0;exitDy=0;exitPerimeter=0;fillColor=#d5e8d4;strokeColor=#82b366;strokeWidth=2;" edge="1" parent="1" source="fGQl1npdr08P0E_O5h-U-5" target="uNmWDIXOQhBQJinFRoVR-44">
          <mxGeometry width="50" height="50" relative="1" as="geometry">
            <mxPoint x="945" y="241.33974596215512" as="sourcePoint" />
            <mxPoint x="785" y="130" as="targetPoint" />
          </mxGeometry>
        </mxCell>
        <mxCell id="fGQl1npdr08P0E_O5h-U-9" value="" style="endArrow=none;html=1;entryX=1;entryY=0.5;entryDx=0;entryDy=0;exitX=0;exitY=0.75;exitDx=0;exitDy=0;entryPerimeter=0;" edge="1" parent="1" source="uNmWDIXOQhBQJinFRoVR-4" target="fGQl1npdr08P0E_O5h-U-5">
          <mxGeometry width="50" height="50" relative="1" as="geometry">
            <mxPoint x="890.340741737109" y="97.41180954897436" as="sourcePoint" />
            <mxPoint x="820" y="97.5" as="targetPoint" />
          </mxGeometry>
        </mxCell>
        <mxCell id="fGQl1npdr08P0E_O5h-U-10" value="" style="shape=providedRequiredInterface;html=1;verticalLabelPosition=bottom;rotation=20;fillColor=#d5e8d4;strokeColor=#82b366;strokeWidth=2;" vertex="1" parent="1">
          <mxGeometry x="1100" y="200" width="20" height="20" as="geometry" />
        </mxCell>
        <mxCell id="fGQl1npdr08P0E_O5h-U-11" value="" style="endArrow=none;html=1;entryX=1;entryY=1;entryDx=0;entryDy=0;exitX=0;exitY=0.5;exitDx=0;exitDy=0;exitPerimeter=0;fillColor=#d5e8d4;strokeColor=#82b366;strokeWidth=2;" edge="1" parent="1" source="fGQl1npdr08P0E_O5h-U-10" target="uNmWDIXOQhBQJinFRoVR-44">
          <mxGeometry width="50" height="50" relative="1" as="geometry">
            <mxPoint x="900.340741737109" y="107.41180954897436" as="sourcePoint" />
            <mxPoint x="830" y="107.5" as="targetPoint" />
          </mxGeometry>
        </mxCell>
        <mxCell id="fGQl1npdr08P0E_O5h-U-12" value="" style="endArrow=none;html=1;entryX=1;entryY=0.5;entryDx=0;entryDy=0;exitX=0;exitY=0.5;exitDx=0;exitDy=0;entryPerimeter=0;" edge="1" parent="1" source="jVSZVKWOK95pv_yEcDNA-10" target="fGQl1npdr08P0E_O5h-U-10">
          <mxGeometry width="50" height="50" relative="1" as="geometry">
            <mxPoint x="1230.340741737109" y="229.41180954897436" as="sourcePoint" />
            <mxPoint x="1160" y="229.5" as="targetPoint" />
          </mxGeometry>
        </mxCell>
        <mxCell id="fGQl1npdr08P0E_O5h-U-13" value="" style="shape=providedRequiredInterface;html=1;verticalLabelPosition=bottom;rotation=45;" vertex="1" parent="1">
          <mxGeometry x="830" y="410" width="20" height="20" as="geometry" />
        </mxCell>
        <mxCell id="fGQl1npdr08P0E_O5h-U-14" value="" style="endArrow=none;html=1;exitX=1;exitY=0.5;exitDx=0;exitDy=0;exitPerimeter=0;" edge="1" parent="1" source="fGQl1npdr08P0E_O5h-U-13" target="jVSZVKWOK95pv_yEcDNA-8">
          <mxGeometry width="50" height="50" relative="1" as="geometry">
            <mxPoint x="777" y="510" as="sourcePoint" />
            <mxPoint x="827" y="460" as="targetPoint" />
          </mxGeometry>
        </mxCell>
        <mxCell id="fGQl1npdr08P0E_O5h-U-15" value="" style="endArrow=none;html=1;entryX=0;entryY=0.5;entryDx=0;entryDy=0;entryPerimeter=0;fillColor=#dae8fc;strokeColor=#6c8ebf;exitX=0.75;exitY=1;exitDx=0;exitDy=0;" edge="1" parent="1" source="jVSZVKWOK95pv_yEcDNA-3" target="fGQl1npdr08P0E_O5h-U-13">
          <mxGeometry width="50" height="50" relative="1" as="geometry">
            <mxPoint x="770" y="370" as="sourcePoint" />
            <mxPoint x="802.9300000000001" y="423.4487433930467" as="targetPoint" />
          </mxGeometry>
        </mxCell>
        <mxCell id="KWHbkK6jLSBNtGeyYjSA-3" value="Application&lt;br&gt;&amp;nbsp;Mobile&lt;br&gt;Astra" style="html=1;dropTarget=0;strokeWidth=3;fillColor=#fff2cc;strokeColor=#d6b656;" vertex="1" parent="1">
          <mxGeometry x="20" y="200" width="100" height="80" as="geometry" />
        </mxCell>
        <mxCell id="KWHbkK6jLSBNtGeyYjSA-4" value="" style="shape=module;jettyWidth=8;jettyHeight=4;" vertex="1" parent="KWHbkK6jLSBNtGeyYjSA-3">
          <mxGeometry x="1" width="20" height="20" relative="1" as="geometry">
            <mxPoint x="-27" y="7" as="offset" />
          </mxGeometry>
        </mxCell>
        <mxCell id="KWHbkK6jLSBNtGeyYjSA-5" value="Site Web Astra" style="html=1;dropTarget=0;strokeWidth=3;fillColor=#fff2cc;strokeColor=#d6b656;" vertex="1" parent="1">
          <mxGeometry y="70" width="110" height="70" as="geometry" />
        </mxCell>
        <mxCell id="KWHbkK6jLSBNtGeyYjSA-6" value="" style="shape=module;jettyWidth=8;jettyHeight=4;" vertex="1" parent="KWHbkK6jLSBNtGeyYjSA-5">
          <mxGeometry x="1" width="20" height="20" relative="1" as="geometry">
            <mxPoint x="-27" y="7" as="offset" />
          </mxGeometry>
        </mxCell>
        <mxCell id="KWHbkK6jLSBNtGeyYjSA-9" value="" style="shape=providedRequiredInterface;html=1;verticalLabelPosition=bottom;strokeWidth=1;rotation=-130;" vertex="1" parent="1">
          <mxGeometry x="150" y="140" width="20" height="20" as="geometry" />
        </mxCell>
        <mxCell id="KWHbkK6jLSBNtGeyYjSA-10" value="" style="endArrow=none;html=1;exitX=1;exitY=0.5;exitDx=0;exitDy=0;entryX=1;entryY=0.5;entryDx=0;entryDy=0;entryPerimeter=0;" edge="1" parent="1" source="KWHbkK6jLSBNtGeyYjSA-5" target="KWHbkK6jLSBNtGeyYjSA-9">
          <mxGeometry width="50" height="50" relative="1" as="geometry">
            <mxPoint x="-280" y="300" as="sourcePoint" />
            <mxPoint x="-230" y="250" as="targetPoint" />
          </mxGeometry>
        </mxCell>
        <mxCell id="KWHbkK6jLSBNtGeyYjSA-11" value="" style="endArrow=none;html=1;exitX=1.019;exitY=0.615;exitDx=0;exitDy=0;exitPerimeter=0;" edge="1" parent="1" source="KWHbkK6jLSBNtGeyYjSA-3" target="KWHbkK6jLSBNtGeyYjSA-13">
          <mxGeometry width="50" height="50" relative="1" as="geometry">
            <mxPoint x="-260" y="410" as="sourcePoint" />
            <mxPoint x="-240" y="380" as="targetPoint" />
          </mxGeometry>
        </mxCell>
        <mxCell id="KWHbkK6jLSBNtGeyYjSA-12" value="" style="endArrow=none;html=1;entryX=-0.008;entryY=0.631;entryDx=0;entryDy=0;entryPerimeter=0;exitX=0;exitY=0.5;exitDx=0;exitDy=0;exitPerimeter=0;" edge="1" parent="1" source="KWHbkK6jLSBNtGeyYjSA-9" target="jVSZVKWOK95pv_yEcDNA-1">
          <mxGeometry width="50" height="50" relative="1" as="geometry">
            <mxPoint x="-80" y="290" as="sourcePoint" />
            <mxPoint x="-210" y="285" as="targetPoint" />
          </mxGeometry>
        </mxCell>
        <mxCell id="KWHbkK6jLSBNtGeyYjSA-13" value="" style="shape=providedRequiredInterface;html=1;verticalLabelPosition=bottom;rotation=135;" vertex="1" parent="1">
          <mxGeometry x="160" y="205" width="20" height="20" as="geometry" />
        </mxCell>
        <mxCell id="KWHbkK6jLSBNtGeyYjSA-14" value="" style="endArrow=none;html=1;entryX=0.005;entryY=0.671;entryDx=0;entryDy=0;entryPerimeter=0;exitX=0;exitY=0.5;exitDx=0;exitDy=0;exitPerimeter=0;" edge="1" parent="1" source="KWHbkK6jLSBNtGeyYjSA-13" target="jVSZVKWOK95pv_yEcDNA-1">
          <mxGeometry width="50" height="50" relative="1" as="geometry">
            <mxPoint x="-80" y="330" as="sourcePoint" />
            <mxPoint x="-230" y="285" as="targetPoint" />
          </mxGeometry>
        </mxCell>
        <mxCell id="KwJhhviEsXyySI-hj1Dy-1" value="&lt;h1&gt;&lt;ul style=&quot;outline-color: rgb(116 , 81 , 235) ; box-sizing: border-box ; margin-left: 16px ; margin-right: 16px ; font-family: &amp;#34;montserrat&amp;#34; ; font-size: 16px ; font-weight: 400 ; background-color: rgb(255 , 255 , 255)&quot;&gt;&lt;li style=&quot;outline-color: rgb(116 , 81 , 235) ; font-size: inherit ; line-height: 1.625rem ; color: rgba(0 , 0 , 0 , 0.92) ; box-sizing: border-box ; font-weight: inherit&quot;&gt;Un&amp;nbsp;&lt;strong style=&quot;outline-color: rgb(116 , 81 , 235) ; color: inherit&quot;&gt;framework d’architecture&lt;/strong&gt;&amp;nbsp;modifié avec les détails des modifications à appliquer sur l’infrastructure informatique existante et les impacts potentiels du déploiement des composants de la nouvelle solution.&lt;/li&gt;&lt;li style=&quot;outline-color: rgb(116 , 81 , 235) ; font-size: inherit ; line-height: 1.625rem ; color: rgba(0 , 0 , 0 , 0.92) ; box-sizing: border-box ; font-weight: inherit&quot;&gt;Une&amp;nbsp;&lt;strong style=&quot;outline-color: rgb(116 , 81 , 235) ; color: inherit&quot;&gt;étude exploratoire&lt;/strong&gt;&amp;nbsp;&lt;strong style=&quot;outline-color: rgb(116 , 81 , 235) ; color: inherit&quot;&gt;d’architecture&lt;/strong&gt;&amp;nbsp;décrivant les résultats des recherches sur les options d’architecture, les avantages et inconvénients, et les options d’optimisation.&lt;/li&gt;&lt;li style=&quot;outline-color: rgb(116 , 81 , 235) ; font-size: inherit ; line-height: 1.625rem ; color: rgba(0 , 0 , 0 , 0.92) ; box-sizing: border-box ; font-weight: inherit&quot;&gt;Un&amp;nbsp;&lt;strong style=&quot;outline-color: rgb(116 , 81 , 235) ; color: inherit&quot;&gt;document de définition&lt;/strong&gt;&amp;nbsp;&lt;strong style=&quot;outline-color: rgb(116 , 81 , 235) ; color: inherit&quot;&gt;d’architecture&lt;/strong&gt;&amp;nbsp;décrivant le framework d’architecture modifiée recommandé et les composants clés de la solution de réunion et de collaboration vidéo proposée.&lt;/li&gt;&lt;/ul&gt;&lt;/h1&gt;" style="text;html=1;strokeColor=none;fillColor=none;spacing=5;spacingTop=-20;whiteSpace=wrap;overflow=hidden;rounded=0;" vertex="1" parent="1">
          <mxGeometry x="50" y="640" width="480" height="320" as="geometry" />
        </mxCell>
        <mxCell id="KwJhhviEsXyySI-hj1Dy-6" value="&lt;h1&gt;&lt;font style=&quot;font-size: 14px&quot;&gt;Les impacts: Compte tenu de l&#39;architecture existante l&#39;ajout des composants n&#39;a que que peux d&#39;impact . Les composants étant autonomes et bien cloisonnés, l&#39;ajout ou le retrait d&#39;un composant n&#39;impacte pas le fonctionnement du système. Il nécessite cependant d&#39;ajuster les capacités mémoire allouée au système.&lt;/font&gt;&lt;/h1&gt;&lt;div&gt;&lt;font style=&quot;font-size: 14px&quot;&gt;&lt;br&gt;&lt;/font&gt;&lt;/div&gt;&lt;div&gt;&lt;font style=&quot;font-size: 14px&quot;&gt;Les pistes d&#39;optimisation du système actuel, sont l&#39;ajout d&#39;un système d&#39;authentification autonome et indépendant qui permette l&#39;accès aux services existant.&amp;nbsp;&lt;/font&gt;&lt;/div&gt;&lt;div&gt;&lt;font style=&quot;font-size: 14px&quot;&gt;&lt;br&gt;&lt;/font&gt;&lt;/div&gt;&lt;div&gt;&lt;font style=&quot;font-size: 14px&quot;&gt;L&#39;architecture actuelle qu&#39;on qualifie d&#39;architecture Micro services, présente l&#39;avantage d&#39;être flexible et rapidement ajustable.&lt;/font&gt;&lt;/div&gt;&lt;div&gt;&lt;font style=&quot;font-size: 14px&quot;&gt;&lt;br&gt;&lt;/font&gt;&lt;/div&gt;&lt;div&gt;&lt;font style=&quot;font-size: 14px&quot;&gt;&lt;ul style=&quot;box-sizing: border-box ; margin-top: 0px ; margin-bottom: 0px ; border: 0px ; outline: 0px ; font-size: 16px ; vertical-align: baseline ; background: 0px 0px rgb(255 , 255 , 255) ; color: rgb(98 , 98 , 98) ; font-family: &amp;#34;popins regular&amp;#34; , sans-serif&quot;&gt;&lt;li style=&quot;box-sizing: border-box ; margin-top: 0px ; margin-bottom: 0px ; border: 0px ; outline: 0px ; vertical-align: baseline ; background: 0px 0px&quot;&gt;Avec beaucoup de services, l’intégration et la gestion des applications peuvent s’avérer complexes&lt;/li&gt;&lt;li style=&quot;box-sizing: border-box ; margin-top: 0px ; margin-bottom: 0px ; border: 0px ; outline: 0px ; vertical-align: baseline ; background: 0px 0px&quot;&gt;Gestion des mécanismes de communication entre tous les services&lt;/li&gt;&lt;li style=&quot;box-sizing: border-box ; margin-top: 0px ; margin-bottom: 0px ; border: 0px ; outline: 0px ; vertical-align: baseline ; background: 0px 0px&quot;&gt;Consommation de mémoire souvent supérieure à une architecture monolithique&lt;/li&gt;&lt;/ul&gt;&lt;/font&gt;&lt;/div&gt;&lt;div&gt;&lt;font style=&quot;font-size: 14px&quot;&gt;&lt;br&gt;&lt;/font&gt;&lt;/div&gt;&lt;div&gt;&lt;font style=&quot;font-size: 14px&quot;&gt;&lt;br&gt;&lt;/font&gt;&lt;/div&gt;&lt;div&gt;&lt;br&gt;&lt;/div&gt;" style="text;html=1;strokeColor=none;fillColor=none;spacing=5;spacingTop=-20;whiteSpace=wrap;overflow=hidden;rounded=0;" vertex="1" parent="1">
          <mxGeometry x="580" y="640" width="410" height="470" as="geometry" />
        </mxCell>
      </root>
    </mxGraphModel>
  </diagram>
  <diagram name="Copy of Archi_GlobalAstra" id="gJYPC504AEFtOxvmRFQ4">
    <mxGraphModel dx="806" dy="490" grid="1" gridSize="10" guides="1" tooltips="1" connect="1" arrows="1" fold="1" page="1" pageScale="1" pageWidth="1654" pageHeight="2336" math="0" shadow="0">
      <root>
        <mxCell id="vhx2vBS3irySZ_pV3HSS-0" />
        <mxCell id="vhx2vBS3irySZ_pV3HSS-1" parent="vhx2vBS3irySZ_pV3HSS-0" />
        <mxCell id="vhx2vBS3irySZ_pV3HSS-2" value="&lt;p style=&quot;margin: 0px ; margin-top: 6px ; text-align: center&quot;&gt;&lt;b&gt;Gestion des&lt;/b&gt;&lt;/p&gt;&lt;p style=&quot;margin: 0px ; margin-top: 6px ; text-align: center&quot;&gt;&lt;b&gt;&amp;nbsp;utilisateurs&lt;/b&gt;&lt;/p&gt;&lt;hr&gt;&lt;p style=&quot;margin: 0px ; margin-left: 8px&quot;&gt;Stocke les identifiants&lt;/p&gt;&lt;p style=&quot;margin: 0px ; margin-left: 8px&quot;&gt;&amp;nbsp;des utilisateurs autorisés&lt;br&gt;&lt;br&gt;&lt;/p&gt;" style="align=left;overflow=fill;html=1;dropTarget=0;fillColor=#fff2cc;strokeColor=#d6b656;" vertex="1" parent="vhx2vBS3irySZ_pV3HSS-1">
          <mxGeometry x="950" y="30" width="150" height="90" as="geometry" />
        </mxCell>
        <mxCell id="vhx2vBS3irySZ_pV3HSS-3" value="" style="shape=component;jettyWidth=8;jettyHeight=4;" vertex="1" parent="vhx2vBS3irySZ_pV3HSS-2">
          <mxGeometry x="1" width="20" height="20" relative="1" as="geometry">
            <mxPoint x="-24" y="4" as="offset" />
          </mxGeometry>
        </mxCell>
        <mxCell id="vhx2vBS3irySZ_pV3HSS-6" value="&lt;p style=&quot;margin: 0px ; margin-top: 6px ; text-align: center&quot;&gt;&lt;b&gt;FireWall&lt;/b&gt;&lt;/p&gt;&lt;hr&gt;&lt;p style=&quot;margin: 0px ; margin-left: 8px&quot;&gt;&lt;br&gt;&lt;br&gt;&lt;/p&gt;" style="align=left;overflow=fill;html=1;dropTarget=0;fillColor=#fff2cc;strokeColor=#d6b656;" vertex="1" parent="vhx2vBS3irySZ_pV3HSS-1">
          <mxGeometry x="440" y="185" width="100" height="90" as="geometry" />
        </mxCell>
        <mxCell id="vhx2vBS3irySZ_pV3HSS-7" value="" style="shape=component;jettyWidth=8;jettyHeight=4;" vertex="1" parent="vhx2vBS3irySZ_pV3HSS-6">
          <mxGeometry x="1" width="20" height="20" relative="1" as="geometry">
            <mxPoint x="-24" y="4" as="offset" />
          </mxGeometry>
        </mxCell>
        <mxCell id="vhx2vBS3irySZ_pV3HSS-8" value="&lt;p style=&quot;margin: 0px ; margin-top: 6px ; text-align: center&quot;&gt;&lt;b&gt;Point d&#39;entrée&amp;nbsp;du&lt;/b&gt;&lt;/p&gt;&lt;p style=&quot;margin: 0px ; margin-top: 6px ; text-align: center&quot;&gt;&lt;b&gt;Service&lt;/b&gt;&lt;/p&gt;&lt;hr&gt;&lt;p style=&quot;margin: 0px ; margin-left: 8px&quot;&gt;Valide la structure des requêtes&lt;/p&gt;&lt;p style=&quot;margin: 0px ; margin-left: 8px&quot;&gt;interface utilisateur&lt;br&gt;&lt;br&gt;&lt;/p&gt;" style="align=left;overflow=fill;html=1;dropTarget=0;fillColor=#fff2cc;strokeColor=#d6b656;" vertex="1" parent="vhx2vBS3irySZ_pV3HSS-1">
          <mxGeometry x="680" y="197.5" width="180" height="85" as="geometry" />
        </mxCell>
        <mxCell id="vhx2vBS3irySZ_pV3HSS-9" value="" style="shape=component;jettyWidth=8;jettyHeight=4;" vertex="1" parent="vhx2vBS3irySZ_pV3HSS-8">
          <mxGeometry x="1" width="20" height="20" relative="1" as="geometry">
            <mxPoint x="-24" y="4" as="offset" />
          </mxGeometry>
        </mxCell>
        <mxCell id="vhx2vBS3irySZ_pV3HSS-10" value="" style="shape=providedRequiredInterface;html=1;verticalLabelPosition=bottom;rotation=-180;" vertex="1" parent="vhx2vBS3irySZ_pV3HSS-1">
          <mxGeometry x="590" y="230" width="20" height="20" as="geometry" />
        </mxCell>
        <mxCell id="vhx2vBS3irySZ_pV3HSS-11" value="" style="endArrow=none;html=1;entryX=1;entryY=0.5;entryDx=0;entryDy=0;entryPerimeter=0;" edge="1" parent="vhx2vBS3irySZ_pV3HSS-1" source="vhx2vBS3irySZ_pV3HSS-6" target="vhx2vBS3irySZ_pV3HSS-10">
          <mxGeometry width="50" height="50" relative="1" as="geometry">
            <mxPoint x="100" y="290" as="sourcePoint" />
            <mxPoint x="90" y="190" as="targetPoint" />
          </mxGeometry>
        </mxCell>
        <mxCell id="vhx2vBS3irySZ_pV3HSS-12" value="" style="endArrow=none;html=1;exitX=0;exitY=0.5;exitDx=0;exitDy=0;entryX=0;entryY=0.5;entryDx=0;entryDy=0;entryPerimeter=0;" edge="1" parent="vhx2vBS3irySZ_pV3HSS-1" source="vhx2vBS3irySZ_pV3HSS-8" target="vhx2vBS3irySZ_pV3HSS-10">
          <mxGeometry width="50" height="50" relative="1" as="geometry">
            <mxPoint x="410" y="275" as="sourcePoint" />
            <mxPoint x="440" y="240" as="targetPoint" />
          </mxGeometry>
        </mxCell>
        <mxCell id="vhx2vBS3irySZ_pV3HSS-13" value="&lt;p style=&quot;margin: 0px ; margin-top: 6px ; text-align: center&quot;&gt;&lt;b&gt;Gestion des&amp;nbsp;&lt;/b&gt;&lt;/p&gt;&lt;p style=&quot;margin: 0px ; margin-top: 6px ; text-align: center&quot;&gt;&lt;b&gt;Organisations&lt;/b&gt;&lt;/p&gt;&lt;hr&gt;&lt;p style=&quot;margin: 0px ; margin-left: 8px&quot;&gt;Stockes les infos sur les&lt;/p&gt;&lt;p style=&quot;margin: 0px ; margin-left: 8px&quot;&gt;&amp;nbsp;organisations autorisés&lt;/p&gt;&lt;p style=&quot;margin: 0px ; margin-left: 8px&quot;&gt;&lt;br&gt;&lt;br&gt;&lt;/p&gt;" style="align=left;overflow=fill;html=1;dropTarget=0;fillColor=#fff2cc;strokeColor=#d6b656;" vertex="1" parent="vhx2vBS3irySZ_pV3HSS-1">
          <mxGeometry x="965" y="370" width="150" height="100" as="geometry" />
        </mxCell>
        <mxCell id="vhx2vBS3irySZ_pV3HSS-14" value="" style="shape=component;jettyWidth=8;jettyHeight=4;" vertex="1" parent="vhx2vBS3irySZ_pV3HSS-13">
          <mxGeometry x="1" width="20" height="20" relative="1" as="geometry">
            <mxPoint x="-24" y="4" as="offset" />
          </mxGeometry>
        </mxCell>
        <mxCell id="vhx2vBS3irySZ_pV3HSS-15" value="&lt;p style=&quot;margin: 0px ; margin-top: 6px ; text-align: center&quot;&gt;&lt;b&gt;Gestion des&amp;nbsp;&lt;/b&gt;&lt;/p&gt;&lt;p style=&quot;margin: 0px ; margin-top: 6px ; text-align: center&quot;&gt;&lt;b&gt;Documents&lt;/b&gt;&lt;/p&gt;&lt;hr&gt;&lt;p style=&quot;margin: 0px ; margin-left: 8px&quot;&gt;Gestion des docs et droit&amp;nbsp;&lt;/p&gt;&lt;p style=&quot;margin: 0px ; margin-left: 8px&quot;&gt;d&#39;acces aux docs&lt;br&gt;&lt;br&gt;&lt;/p&gt;" style="align=left;overflow=fill;html=1;dropTarget=0;fillColor=#fff2cc;strokeColor=#d6b656;" vertex="1" parent="vhx2vBS3irySZ_pV3HSS-1">
          <mxGeometry x="1220" y="200" width="150" height="90" as="geometry" />
        </mxCell>
        <mxCell id="vhx2vBS3irySZ_pV3HSS-16" value="" style="shape=component;jettyWidth=8;jettyHeight=4;" vertex="1" parent="vhx2vBS3irySZ_pV3HSS-15">
          <mxGeometry x="1" width="20" height="20" relative="1" as="geometry">
            <mxPoint x="-24" y="4" as="offset" />
          </mxGeometry>
        </mxCell>
        <mxCell id="vhx2vBS3irySZ_pV3HSS-50" value="&lt;p style=&quot;margin: 0px ; margin-top: 6px ; text-align: center&quot;&gt;&lt;b&gt;Gestion RH&lt;/b&gt;&lt;/p&gt;&lt;hr&gt;&lt;p style=&quot;margin: 0px ; margin-left: 8px&quot;&gt;Gestion des données RH&lt;/p&gt;&lt;p style=&quot;margin: 0px ; margin-left: 8px&quot;&gt;&amp;nbsp;Astra&lt;br&gt;&lt;/p&gt;" style="align=left;overflow=fill;html=1;dropTarget=0;fillColor=#fff2cc;strokeColor=#d6b656;" vertex="1" parent="vhx2vBS3irySZ_pV3HSS-1">
          <mxGeometry x="1230" y="390" width="180" height="70" as="geometry" />
        </mxCell>
        <mxCell id="vhx2vBS3irySZ_pV3HSS-51" value="" style="shape=component;jettyWidth=8;jettyHeight=4;" vertex="1" parent="vhx2vBS3irySZ_pV3HSS-50">
          <mxGeometry x="1" width="20" height="20" relative="1" as="geometry">
            <mxPoint x="-24" y="4" as="offset" />
          </mxGeometry>
        </mxCell>
        <mxCell id="vhx2vBS3irySZ_pV3HSS-52" value="&lt;p style=&quot;margin: 0px ; margin-top: 6px ; text-align: center&quot;&gt;&lt;b&gt;Email&lt;/b&gt;&lt;/p&gt;&lt;hr&gt;&lt;p style=&quot;margin: 0px ; margin-left: 8px&quot;&gt;Système email&lt;/p&gt;&lt;p style=&quot;margin: 0px ; margin-left: 8px&quot;&gt;&amp;nbsp;de l&#39;entreprise&lt;br&gt;&lt;br&gt;&lt;/p&gt;" style="align=left;overflow=fill;html=1;dropTarget=0;fillColor=#fff2cc;strokeColor=#d6b656;" vertex="1" parent="vhx2vBS3irySZ_pV3HSS-1">
          <mxGeometry x="1210" y="20" width="130" height="70" as="geometry" />
        </mxCell>
        <mxCell id="vhx2vBS3irySZ_pV3HSS-53" value="" style="shape=component;jettyWidth=8;jettyHeight=4;" vertex="1" parent="vhx2vBS3irySZ_pV3HSS-52">
          <mxGeometry x="1" width="20" height="20" relative="1" as="geometry">
            <mxPoint x="-24" y="4" as="offset" />
          </mxGeometry>
        </mxCell>
        <mxCell id="vhx2vBS3irySZ_pV3HSS-57" value="" style="shape=providedRequiredInterface;html=1;verticalLabelPosition=bottom;rotation=-205;" vertex="1" parent="vhx2vBS3irySZ_pV3HSS-1">
          <mxGeometry x="870" y="130" width="20" height="20" as="geometry" />
        </mxCell>
        <mxCell id="vhx2vBS3irySZ_pV3HSS-58" value="" style="shape=providedRequiredInterface;html=1;verticalLabelPosition=bottom;rotation=-180;" vertex="1" parent="vhx2vBS3irySZ_pV3HSS-1">
          <mxGeometry x="980" y="240" width="20" height="20" as="geometry" />
        </mxCell>
        <mxCell id="vhx2vBS3irySZ_pV3HSS-59" value="" style="endArrow=none;html=1;entryX=1;entryY=0.5;entryDx=0;entryDy=0;entryPerimeter=0;fillColor=#dae8fc;exitX=0.75;exitY=0;exitDx=0;exitDy=0;" edge="1" parent="vhx2vBS3irySZ_pV3HSS-1" source="vhx2vBS3irySZ_pV3HSS-8" target="vhx2vBS3irySZ_pV3HSS-57">
          <mxGeometry width="50" height="50" relative="1" as="geometry">
            <mxPoint x="760" y="250" as="sourcePoint" />
            <mxPoint x="827" y="205" as="targetPoint" />
          </mxGeometry>
        </mxCell>
        <mxCell id="vhx2vBS3irySZ_pV3HSS-60" value="" style="endArrow=none;html=1;exitX=0;exitY=0.5;exitDx=0;exitDy=0;entryX=0;entryY=1;entryDx=0;entryDy=0;exitPerimeter=0;" edge="1" parent="vhx2vBS3irySZ_pV3HSS-1" source="vhx2vBS3irySZ_pV3HSS-57" target="vhx2vBS3irySZ_pV3HSS-2">
          <mxGeometry width="50" height="50" relative="1" as="geometry">
            <mxPoint x="860" y="185" as="sourcePoint" />
            <mxPoint x="940.9369221296338" y="124.22618261740672" as="targetPoint" />
          </mxGeometry>
        </mxCell>
        <mxCell id="vhx2vBS3irySZ_pV3HSS-61" value="" style="endArrow=none;html=1;entryX=1;entryY=0.5;entryDx=0;entryDy=0;entryPerimeter=0;fillColor=#dae8fc;exitX=1;exitY=0.75;exitDx=0;exitDy=0;" edge="1" parent="vhx2vBS3irySZ_pV3HSS-1" source="vhx2vBS3irySZ_pV3HSS-8" target="vhx2vBS3irySZ_pV3HSS-58">
          <mxGeometry width="50" height="50" relative="1" as="geometry">
            <mxPoint x="790" y="305" as="sourcePoint" />
            <mxPoint x="870" y="265" as="targetPoint" />
          </mxGeometry>
        </mxCell>
        <mxCell id="vhx2vBS3irySZ_pV3HSS-62" value="" style="endArrow=none;html=1;exitX=0;exitY=0.5;exitDx=0;exitDy=0;exitPerimeter=0;entryX=0;entryY=0.5;entryDx=0;entryDy=0;" edge="1" parent="vhx2vBS3irySZ_pV3HSS-1" source="vhx2vBS3irySZ_pV3HSS-58" target="vhx2vBS3irySZ_pV3HSS-15">
          <mxGeometry width="50" height="50" relative="1" as="geometry">
            <mxPoint x="950.0000000000002" y="230" as="sourcePoint" />
            <mxPoint x="1110.72" y="230" as="targetPoint" />
          </mxGeometry>
        </mxCell>
        <mxCell id="vhx2vBS3irySZ_pV3HSS-63" value="" style="shape=providedRequiredInterface;html=1;verticalLabelPosition=bottom;rotation=-90;" vertex="1" parent="vhx2vBS3irySZ_pV3HSS-1">
          <mxGeometry x="1030" y="220" width="20" height="20" as="geometry" />
        </mxCell>
        <mxCell id="vhx2vBS3irySZ_pV3HSS-64" value="" style="endArrow=none;html=1;exitX=1;exitY=0.5;exitDx=0;exitDy=0;exitPerimeter=0;entryX=0.5;entryY=1;entryDx=0;entryDy=0;" edge="1" parent="vhx2vBS3irySZ_pV3HSS-1" source="vhx2vBS3irySZ_pV3HSS-63" target="vhx2vBS3irySZ_pV3HSS-2">
          <mxGeometry width="50" height="50" relative="1" as="geometry">
            <mxPoint x="1070" y="210" as="sourcePoint" />
            <mxPoint x="1120" y="160" as="targetPoint" />
          </mxGeometry>
        </mxCell>
        <mxCell id="vhx2vBS3irySZ_pV3HSS-65" value="" style="endArrow=none;html=1;entryX=0;entryY=0.5;entryDx=0;entryDy=0;entryPerimeter=0;exitX=0.5;exitY=0;exitDx=0;exitDy=0;" edge="1" parent="vhx2vBS3irySZ_pV3HSS-1" source="vhx2vBS3irySZ_pV3HSS-13" target="vhx2vBS3irySZ_pV3HSS-63">
          <mxGeometry width="50" height="50" relative="1" as="geometry">
            <mxPoint x="1010" y="360" as="sourcePoint" />
            <mxPoint x="1060" y="310" as="targetPoint" />
          </mxGeometry>
        </mxCell>
        <mxCell id="vhx2vBS3irySZ_pV3HSS-66" value="" style="shape=providedRequiredInterface;html=1;verticalLabelPosition=bottom;rotation=45;" vertex="1" parent="vhx2vBS3irySZ_pV3HSS-1">
          <mxGeometry x="1160" y="130" width="20" height="20" as="geometry" />
        </mxCell>
        <mxCell id="vhx2vBS3irySZ_pV3HSS-67" value="" style="shape=providedRequiredInterface;html=1;verticalLabelPosition=bottom;rotation=-30;" vertex="1" parent="vhx2vBS3irySZ_pV3HSS-1">
          <mxGeometry x="1180" y="350" width="20" height="20" as="geometry" />
        </mxCell>
        <mxCell id="vhx2vBS3irySZ_pV3HSS-68" value="" style="endArrow=none;html=1;entryX=0;entryY=1;entryDx=0;entryDy=0;exitX=1;exitY=0.5;exitDx=0;exitDy=0;exitPerimeter=0;" edge="1" parent="vhx2vBS3irySZ_pV3HSS-1" source="vhx2vBS3irySZ_pV3HSS-67" target="vhx2vBS3irySZ_pV3HSS-15">
          <mxGeometry width="50" height="50" relative="1" as="geometry">
            <mxPoint x="1250" y="300" as="sourcePoint" />
            <mxPoint x="1300" y="250" as="targetPoint" />
          </mxGeometry>
        </mxCell>
        <mxCell id="vhx2vBS3irySZ_pV3HSS-69" value="" style="endArrow=none;html=1;entryX=0;entryY=0.5;entryDx=0;entryDy=0;entryPerimeter=0;exitX=1;exitY=0.5;exitDx=0;exitDy=0;" edge="1" parent="vhx2vBS3irySZ_pV3HSS-1" source="vhx2vBS3irySZ_pV3HSS-13" target="vhx2vBS3irySZ_pV3HSS-67">
          <mxGeometry width="50" height="50" relative="1" as="geometry">
            <mxPoint x="1120" y="345" as="sourcePoint" />
            <mxPoint x="1170" y="295" as="targetPoint" />
          </mxGeometry>
        </mxCell>
        <mxCell id="vhx2vBS3irySZ_pV3HSS-70" value="" style="endArrow=none;html=1;entryX=0;entryY=0;entryDx=0;entryDy=0;exitX=1;exitY=0.5;exitDx=0;exitDy=0;exitPerimeter=0;" edge="1" parent="vhx2vBS3irySZ_pV3HSS-1" source="vhx2vBS3irySZ_pV3HSS-66" target="vhx2vBS3irySZ_pV3HSS-15">
          <mxGeometry width="50" height="50" relative="1" as="geometry">
            <mxPoint x="1010" y="360" as="sourcePoint" />
            <mxPoint x="1060" y="310" as="targetPoint" />
          </mxGeometry>
        </mxCell>
        <mxCell id="vhx2vBS3irySZ_pV3HSS-71" value="" style="endArrow=none;html=1;entryX=0;entryY=0.5;entryDx=0;entryDy=0;entryPerimeter=0;exitX=1;exitY=0.5;exitDx=0;exitDy=0;" edge="1" parent="vhx2vBS3irySZ_pV3HSS-1" source="vhx2vBS3irySZ_pV3HSS-2" target="vhx2vBS3irySZ_pV3HSS-66">
          <mxGeometry width="50" height="50" relative="1" as="geometry">
            <mxPoint x="1010" y="360" as="sourcePoint" />
            <mxPoint x="1060" y="310" as="targetPoint" />
          </mxGeometry>
        </mxCell>
        <mxCell id="vhx2vBS3irySZ_pV3HSS-72" value="" style="shape=providedRequiredInterface;html=1;verticalLabelPosition=bottom;rotation=90;" vertex="1" parent="vhx2vBS3irySZ_pV3HSS-1">
          <mxGeometry x="1265" y="140" width="20" height="20" as="geometry" />
        </mxCell>
        <mxCell id="vhx2vBS3irySZ_pV3HSS-73" value="" style="shape=providedRequiredInterface;html=1;verticalLabelPosition=bottom;rotation=-90;" vertex="1" parent="vhx2vBS3irySZ_pV3HSS-1">
          <mxGeometry x="1310" y="340" width="20" height="20" as="geometry" />
        </mxCell>
        <mxCell id="vhx2vBS3irySZ_pV3HSS-74" value="" style="endArrow=none;html=1;entryX=1;entryY=0.5;entryDx=0;entryDy=0;entryPerimeter=0;exitX=0.411;exitY=-0.003;exitDx=0;exitDy=0;exitPerimeter=0;" edge="1" parent="vhx2vBS3irySZ_pV3HSS-1" source="vhx2vBS3irySZ_pV3HSS-15" target="vhx2vBS3irySZ_pV3HSS-72">
          <mxGeometry width="50" height="50" relative="1" as="geometry">
            <mxPoint x="1460" y="185" as="sourcePoint" />
            <mxPoint x="1510" y="135" as="targetPoint" />
          </mxGeometry>
        </mxCell>
        <mxCell id="vhx2vBS3irySZ_pV3HSS-75" value="" style="endArrow=none;html=1;entryX=0.447;entryY=1.016;entryDx=0;entryDy=0;entryPerimeter=0;exitX=0;exitY=0.5;exitDx=0;exitDy=0;exitPerimeter=0;" edge="1" parent="vhx2vBS3irySZ_pV3HSS-1" source="vhx2vBS3irySZ_pV3HSS-72" target="vhx2vBS3irySZ_pV3HSS-52">
          <mxGeometry width="50" height="50" relative="1" as="geometry">
            <mxPoint x="1433.9799999999996" y="169.73000000000002" as="sourcePoint" />
            <mxPoint x="1430" y="110" as="targetPoint" />
          </mxGeometry>
        </mxCell>
        <mxCell id="vhx2vBS3irySZ_pV3HSS-76" value="" style="endArrow=none;html=1;entryX=0;entryY=0.5;entryDx=0;entryDy=0;entryPerimeter=0;exitX=0.5;exitY=0;exitDx=0;exitDy=0;" edge="1" parent="vhx2vBS3irySZ_pV3HSS-1" source="vhx2vBS3irySZ_pV3HSS-50" target="vhx2vBS3irySZ_pV3HSS-73">
          <mxGeometry width="50" height="50" relative="1" as="geometry">
            <mxPoint x="1401.9899999999996" y="469.86" as="sourcePoint" />
            <mxPoint x="1398.01" y="410.13" as="targetPoint" />
          </mxGeometry>
        </mxCell>
        <mxCell id="vhx2vBS3irySZ_pV3HSS-77" value="" style="endArrow=none;html=1;exitX=1;exitY=0.5;exitDx=0;exitDy=0;exitPerimeter=0;entryX=0.5;entryY=1;entryDx=0;entryDy=0;" edge="1" parent="vhx2vBS3irySZ_pV3HSS-1" source="vhx2vBS3irySZ_pV3HSS-73" target="vhx2vBS3irySZ_pV3HSS-15">
          <mxGeometry width="50" height="50" relative="1" as="geometry">
            <mxPoint x="1296.9999999999995" y="349.73" as="sourcePoint" />
            <mxPoint x="1293.01" y="290" as="targetPoint" />
          </mxGeometry>
        </mxCell>
        <mxCell id="vhx2vBS3irySZ_pV3HSS-90" value="" style="shape=providedRequiredInterface;html=1;verticalLabelPosition=bottom;rotation=45;" vertex="1" parent="vhx2vBS3irySZ_pV3HSS-1">
          <mxGeometry x="870" y="340" width="20" height="20" as="geometry" />
        </mxCell>
        <mxCell id="vhx2vBS3irySZ_pV3HSS-91" value="" style="endArrow=none;html=1;exitX=1;exitY=0.5;exitDx=0;exitDy=0;exitPerimeter=0;" edge="1" parent="vhx2vBS3irySZ_pV3HSS-1" source="vhx2vBS3irySZ_pV3HSS-90" target="vhx2vBS3irySZ_pV3HSS-13">
          <mxGeometry width="50" height="50" relative="1" as="geometry">
            <mxPoint x="777" y="510" as="sourcePoint" />
            <mxPoint x="827" y="460" as="targetPoint" />
          </mxGeometry>
        </mxCell>
        <mxCell id="vhx2vBS3irySZ_pV3HSS-92" value="" style="endArrow=none;html=1;entryX=0;entryY=0.5;entryDx=0;entryDy=0;entryPerimeter=0;fillColor=#dae8fc;exitX=0.75;exitY=1;exitDx=0;exitDy=0;" edge="1" parent="vhx2vBS3irySZ_pV3HSS-1" source="vhx2vBS3irySZ_pV3HSS-8" target="vhx2vBS3irySZ_pV3HSS-90">
          <mxGeometry width="50" height="50" relative="1" as="geometry">
            <mxPoint x="770" y="370" as="sourcePoint" />
            <mxPoint x="802.9300000000001" y="423.4487433930467" as="targetPoint" />
          </mxGeometry>
        </mxCell>
        <mxCell id="vhx2vBS3irySZ_pV3HSS-93" value="Application&lt;br&gt;&amp;nbsp;Mobile&lt;br&gt;Astra" style="html=1;dropTarget=0;strokeWidth=3;fillColor=#fff2cc;strokeColor=#d6b656;" vertex="1" parent="vhx2vBS3irySZ_pV3HSS-1">
          <mxGeometry x="220" y="230" width="100" height="80" as="geometry" />
        </mxCell>
        <mxCell id="vhx2vBS3irySZ_pV3HSS-94" value="" style="shape=module;jettyWidth=8;jettyHeight=4;" vertex="1" parent="vhx2vBS3irySZ_pV3HSS-93">
          <mxGeometry x="1" width="20" height="20" relative="1" as="geometry">
            <mxPoint x="-27" y="7" as="offset" />
          </mxGeometry>
        </mxCell>
        <mxCell id="vhx2vBS3irySZ_pV3HSS-95" value="Site Web Astra" style="html=1;dropTarget=0;strokeWidth=3;fillColor=#fff2cc;strokeColor=#d6b656;" vertex="1" parent="vhx2vBS3irySZ_pV3HSS-1">
          <mxGeometry x="230" y="105" width="110" height="70" as="geometry" />
        </mxCell>
        <mxCell id="vhx2vBS3irySZ_pV3HSS-96" value="" style="shape=module;jettyWidth=8;jettyHeight=4;" vertex="1" parent="vhx2vBS3irySZ_pV3HSS-95">
          <mxGeometry x="1" width="20" height="20" relative="1" as="geometry">
            <mxPoint x="-27" y="7" as="offset" />
          </mxGeometry>
        </mxCell>
        <mxCell id="vhx2vBS3irySZ_pV3HSS-97" value="" style="shape=providedRequiredInterface;html=1;verticalLabelPosition=bottom;strokeWidth=1;rotation=-130;" vertex="1" parent="vhx2vBS3irySZ_pV3HSS-1">
          <mxGeometry x="370" y="165" width="20" height="20" as="geometry" />
        </mxCell>
        <mxCell id="vhx2vBS3irySZ_pV3HSS-98" value="" style="endArrow=none;html=1;exitX=1;exitY=0.5;exitDx=0;exitDy=0;entryX=1;entryY=0.5;entryDx=0;entryDy=0;entryPerimeter=0;" edge="1" parent="vhx2vBS3irySZ_pV3HSS-1" source="vhx2vBS3irySZ_pV3HSS-95" target="vhx2vBS3irySZ_pV3HSS-97">
          <mxGeometry width="50" height="50" relative="1" as="geometry">
            <mxPoint x="-280" y="300" as="sourcePoint" />
            <mxPoint x="-230" y="250" as="targetPoint" />
          </mxGeometry>
        </mxCell>
        <mxCell id="vhx2vBS3irySZ_pV3HSS-99" value="" style="endArrow=none;html=1;exitX=1.019;exitY=0.615;exitDx=0;exitDy=0;exitPerimeter=0;" edge="1" parent="vhx2vBS3irySZ_pV3HSS-1" source="vhx2vBS3irySZ_pV3HSS-93" target="vhx2vBS3irySZ_pV3HSS-101">
          <mxGeometry width="50" height="50" relative="1" as="geometry">
            <mxPoint x="-260" y="410" as="sourcePoint" />
            <mxPoint x="-240" y="380" as="targetPoint" />
          </mxGeometry>
        </mxCell>
        <mxCell id="vhx2vBS3irySZ_pV3HSS-100" value="" style="endArrow=none;html=1;entryX=-0.008;entryY=0.631;entryDx=0;entryDy=0;entryPerimeter=0;exitX=0;exitY=0.5;exitDx=0;exitDy=0;exitPerimeter=0;" edge="1" parent="vhx2vBS3irySZ_pV3HSS-1" source="vhx2vBS3irySZ_pV3HSS-97" target="vhx2vBS3irySZ_pV3HSS-6">
          <mxGeometry width="50" height="50" relative="1" as="geometry">
            <mxPoint x="-80" y="290" as="sourcePoint" />
            <mxPoint x="-210" y="285" as="targetPoint" />
          </mxGeometry>
        </mxCell>
        <mxCell id="vhx2vBS3irySZ_pV3HSS-101" value="" style="shape=providedRequiredInterface;html=1;verticalLabelPosition=bottom;rotation=135;" vertex="1" parent="vhx2vBS3irySZ_pV3HSS-1">
          <mxGeometry x="370" y="270" width="20" height="20" as="geometry" />
        </mxCell>
        <mxCell id="vhx2vBS3irySZ_pV3HSS-102" value="" style="endArrow=none;html=1;entryX=0.005;entryY=0.671;entryDx=0;entryDy=0;entryPerimeter=0;exitX=0;exitY=0.5;exitDx=0;exitDy=0;exitPerimeter=0;" edge="1" parent="vhx2vBS3irySZ_pV3HSS-1" source="vhx2vBS3irySZ_pV3HSS-101" target="vhx2vBS3irySZ_pV3HSS-6">
          <mxGeometry width="50" height="50" relative="1" as="geometry">
            <mxPoint x="-80" y="330" as="sourcePoint" />
            <mxPoint x="-230" y="285" as="targetPoint" />
          </mxGeometry>
        </mxCell>
        <mxCell id="vhx2vBS3irySZ_pV3HSS-103" value="&lt;h1&gt;&lt;ul style=&quot;outline-color: rgb(116 , 81 , 235) ; box-sizing: border-box ; margin-left: 16px ; margin-right: 16px ; font-family: &amp;#34;montserrat&amp;#34; ; font-size: 16px ; font-weight: 400 ; background-color: rgb(255 , 255 , 255)&quot;&gt;&lt;li style=&quot;outline-color: rgb(116 , 81 , 235) ; font-size: inherit ; line-height: 1.625rem ; color: rgba(0 , 0 , 0 , 0.92) ; box-sizing: border-box ; font-weight: inherit&quot;&gt;Un&amp;nbsp;&lt;strong style=&quot;outline-color: rgb(116 , 81 , 235) ; color: inherit&quot;&gt;framework d’architecture&lt;/strong&gt;&amp;nbsp;modifié avec les détails des modifications à appliquer sur l’infrastructure informatique existante et les impacts potentiels du déploiement des composants de la nouvelle solution.&lt;/li&gt;&lt;li style=&quot;outline-color: rgb(116 , 81 , 235) ; font-size: inherit ; line-height: 1.625rem ; color: rgba(0 , 0 , 0 , 0.92) ; box-sizing: border-box ; font-weight: inherit&quot;&gt;Une&amp;nbsp;&lt;strong style=&quot;outline-color: rgb(116 , 81 , 235) ; color: inherit&quot;&gt;étude exploratoire&lt;/strong&gt;&amp;nbsp;&lt;strong style=&quot;outline-color: rgb(116 , 81 , 235) ; color: inherit&quot;&gt;d’architecture&lt;/strong&gt;&amp;nbsp;décrivant les résultats des recherches sur les options d’architecture, les avantages et inconvénients, et les options d’optimisation.&lt;/li&gt;&lt;li style=&quot;outline-color: rgb(116 , 81 , 235) ; font-size: inherit ; line-height: 1.625rem ; color: rgba(0 , 0 , 0 , 0.92) ; box-sizing: border-box ; font-weight: inherit&quot;&gt;Un&amp;nbsp;&lt;strong style=&quot;outline-color: rgb(116 , 81 , 235) ; color: inherit&quot;&gt;document de définition&lt;/strong&gt;&amp;nbsp;&lt;strong style=&quot;outline-color: rgb(116 , 81 , 235) ; color: inherit&quot;&gt;d’architecture&lt;/strong&gt;&amp;nbsp;décrivant le framework d’architecture modifiée recommandé et les composants clés de la solution de réunion et de collaboration vidéo proposée.&lt;/li&gt;&lt;/ul&gt;&lt;/h1&gt;" style="text;html=1;strokeColor=none;fillColor=none;spacing=5;spacingTop=-20;whiteSpace=wrap;overflow=hidden;rounded=0;" vertex="1" parent="vhx2vBS3irySZ_pV3HSS-1">
          <mxGeometry x="50" y="640" width="480" height="320" as="geometry" />
        </mxCell>
        <mxCell id="vhx2vBS3irySZ_pV3HSS-108" value="&lt;h1&gt;&lt;font style=&quot;font-size: 14px&quot;&gt;Les impacts: Compte tenu de l&#39;architecture existante l&#39;ajout des composants n&#39;a que que peux d&#39;impact . Les composants étant autonomes et bien cloisonnés, l&#39;ajout ou le retrait d&#39;un composant n&#39;impacte pas le fonctionnement du système. Il nécessite cependant d&#39;ajuster les capacités mémoire allouée au système.&lt;/font&gt;&lt;/h1&gt;&lt;div&gt;&lt;font style=&quot;font-size: 14px&quot;&gt;&lt;br&gt;&lt;/font&gt;&lt;/div&gt;&lt;div&gt;&lt;font style=&quot;font-size: 14px&quot;&gt;Les pistes d&#39;optimisation du système actuel, sont l&#39;ajout d&#39;un système d&#39;authentification autonome et indépendant qui permette l&#39;accès aux services existant.&amp;nbsp;&lt;/font&gt;&lt;/div&gt;&lt;div&gt;&lt;font style=&quot;font-size: 14px&quot;&gt;&lt;br&gt;&lt;/font&gt;&lt;/div&gt;&lt;div&gt;&lt;font style=&quot;font-size: 14px&quot;&gt;L&#39;architecture actuelle qu&#39;on qualifie d&#39;architecture Micro services, présente l&#39;avantage d&#39;être flexible et rapidement ajustable.&lt;/font&gt;&lt;/div&gt;&lt;div&gt;&lt;font style=&quot;font-size: 14px&quot;&gt;&lt;br&gt;&lt;/font&gt;&lt;/div&gt;&lt;div&gt;&lt;font style=&quot;font-size: 14px&quot;&gt;&lt;ul style=&quot;box-sizing: border-box ; margin-top: 0px ; margin-bottom: 0px ; border: 0px ; outline: 0px ; font-size: 16px ; vertical-align: baseline ; background: 0px 0px rgb(255 , 255 , 255) ; color: rgb(98 , 98 , 98) ; font-family: &amp;#34;popins regular&amp;#34; , sans-serif&quot;&gt;&lt;li style=&quot;box-sizing: border-box ; margin-top: 0px ; margin-bottom: 0px ; border: 0px ; outline: 0px ; vertical-align: baseline ; background: 0px 0px&quot;&gt;Avec beaucoup de services, l’intégration et la gestion des applications peuvent s’avérer complexes&lt;/li&gt;&lt;li style=&quot;box-sizing: border-box ; margin-top: 0px ; margin-bottom: 0px ; border: 0px ; outline: 0px ; vertical-align: baseline ; background: 0px 0px&quot;&gt;Gestion des mécanismes de communication entre tous les services&lt;/li&gt;&lt;li style=&quot;box-sizing: border-box ; margin-top: 0px ; margin-bottom: 0px ; border: 0px ; outline: 0px ; vertical-align: baseline ; background: 0px 0px&quot;&gt;Consommation de mémoire souvent supérieure à une architecture monolithique&lt;/li&gt;&lt;/ul&gt;&lt;/font&gt;&lt;/div&gt;&lt;div&gt;&lt;font style=&quot;font-size: 14px&quot;&gt;&lt;br&gt;&lt;/font&gt;&lt;/div&gt;&lt;div&gt;&lt;font style=&quot;font-size: 14px&quot;&gt;&lt;br&gt;&lt;/font&gt;&lt;/div&gt;&lt;div&gt;&lt;br&gt;&lt;/div&gt;" style="text;html=1;strokeColor=none;fillColor=none;spacing=5;spacingTop=-20;whiteSpace=wrap;overflow=hidden;rounded=0;" vertex="1" parent="vhx2vBS3irySZ_pV3HSS-1">
          <mxGeometry x="580" y="640" width="410" height="470" as="geometry" />
        </mxCell>
      </root>
    </mxGraphModel>
  </diagram>
  <diagram id="DB__-z2srqPdFhaWFiU-" name="Logiciel_VisioAstra">
    <mxGraphModel dx="806" dy="490" grid="1" gridSize="10" guides="1" tooltips="1" connect="1" arrows="1" fold="1" page="1" pageScale="1" pageWidth="1654" pageHeight="2336" math="0" shadow="0">
      <root>
        <mxCell id="e5EIBYE1KxdU-MoMEidJ-0" />
        <mxCell id="e5EIBYE1KxdU-MoMEidJ-1" parent="e5EIBYE1KxdU-MoMEidJ-0" />
        <mxCell id="ljZciSkAlkFSWFK2tQ48-0" value="F&lt;br&gt;R&lt;br&gt;O&lt;br&gt;N&lt;br&gt;T&lt;br&gt;&lt;br&gt;E&lt;br&gt;N&lt;br&gt;D" style="rounded=0;whiteSpace=wrap;html=1;strokeWidth=1;" vertex="1" parent="e5EIBYE1KxdU-MoMEidJ-1">
          <mxGeometry x="340" y="140" width="50" height="190" as="geometry" />
        </mxCell>
        <mxCell id="ULAm-2f7aBAijF9VwrvK-0" value="" style="verticalLabelPosition=bottom;aspect=fixed;html=1;verticalAlign=top;strokeColor=none;align=center;outlineConnect=0;shape=mxgraph.citrix.cell_phone;" vertex="1" parent="e5EIBYE1KxdU-MoMEidJ-1">
          <mxGeometry x="220" y="120" width="25" height="60" as="geometry" />
        </mxCell>
        <mxCell id="ULAm-2f7aBAijF9VwrvK-1" value="" style="verticalLabelPosition=bottom;aspect=fixed;html=1;verticalAlign=top;strokeColor=none;align=center;outlineConnect=0;shape=mxgraph.citrix.laptop_2;" vertex="1" parent="e5EIBYE1KxdU-MoMEidJ-1">
          <mxGeometry x="140" y="243.5" width="116" height="86.5" as="geometry" />
        </mxCell>
        <mxCell id="ULAm-2f7aBAijF9VwrvK-2" value="" style="rounded=1;whiteSpace=wrap;html=1;strokeWidth=1;" vertex="1" parent="e5EIBYE1KxdU-MoMEidJ-1">
          <mxGeometry x="510" y="110" width="120" height="60" as="geometry" />
        </mxCell>
        <mxCell id="ULAm-2f7aBAijF9VwrvK-3" value="" style="rounded=1;whiteSpace=wrap;html=1;strokeWidth=1;" vertex="1" parent="e5EIBYE1KxdU-MoMEidJ-1">
          <mxGeometry x="510" y="200" width="120" height="60" as="geometry" />
        </mxCell>
        <mxCell id="ULAm-2f7aBAijF9VwrvK-4" value="" style="rounded=1;whiteSpace=wrap;html=1;strokeWidth=1;" vertex="1" parent="e5EIBYE1KxdU-MoMEidJ-1">
          <mxGeometry x="510" y="290" width="120" height="60" as="geometry" />
        </mxCell>
      </root>
    </mxGraphModel>
  </diagram>
  <diagram id="ZQBFYvCCky1Yyn8IJ51x" name="Archi_MicroService_Astra">
    <mxGraphModel dx="806" dy="490" grid="1" gridSize="10" guides="1" tooltips="1" connect="1" arrows="1" fold="1" page="1" pageScale="1" pageWidth="1654" pageHeight="2336" math="0" shadow="0">
      <root>
        <mxCell id="4fTbdOuplWJWy0ZnZLD6-0" />
        <mxCell id="4fTbdOuplWJWy0ZnZLD6-1" parent="4fTbdOuplWJWy0ZnZLD6-0" />
        <mxCell id="Kk27PhnqPwjXd6HX6P_E-2" value="" style="rounded=0;whiteSpace=wrap;html=1;strokeWidth=1;fillColor=#d5e8d4;strokeColor=#82b366;" vertex="1" parent="4fTbdOuplWJWy0ZnZLD6-1">
          <mxGeometry x="890" y="30" width="440" height="360" as="geometry" />
        </mxCell>
        <mxCell id="MeA2tjayVCJ_rQtpdqhV-0" value="" style="verticalLabelPosition=bottom;aspect=fixed;html=1;verticalAlign=top;strokeColor=none;align=center;outlineConnect=0;shape=mxgraph.citrix.cell_phone;" vertex="1" parent="4fTbdOuplWJWy0ZnZLD6-1">
          <mxGeometry x="370" y="130" width="33.33" height="80" as="geometry" />
        </mxCell>
        <mxCell id="MeA2tjayVCJ_rQtpdqhV-1" value="&lt;b&gt;Firewall&lt;/b&gt;" style="verticalLabelPosition=bottom;aspect=fixed;html=1;verticalAlign=top;strokeColor=none;align=center;outlineConnect=0;shape=mxgraph.citrix.firewall;" vertex="1" parent="4fTbdOuplWJWy0ZnZLD6-1">
          <mxGeometry x="520" y="163.5" width="75" height="93" as="geometry" />
        </mxCell>
        <mxCell id="MeA2tjayVCJ_rQtpdqhV-3" value="" style="verticalLabelPosition=bottom;aspect=fixed;html=1;verticalAlign=top;strokeColor=none;align=center;outlineConnect=0;shape=mxgraph.citrix.laptop_2;" vertex="1" parent="4fTbdOuplWJWy0ZnZLD6-1">
          <mxGeometry x="319.73" y="230" width="93.87" height="70" as="geometry" />
        </mxCell>
        <mxCell id="9lUla8cGLmMXuZO4hWIA-2" value="&lt;b&gt;Système d&#39;authentification&lt;br&gt;(Identity Provider)&lt;/b&gt;" style="rounded=1;whiteSpace=wrap;html=1;fillColor=#f8cecc;strokeColor=#b85450;strokeWidth=3;" vertex="1" parent="4fTbdOuplWJWy0ZnZLD6-1">
          <mxGeometry x="650" y="183.5" width="120" height="66.5" as="geometry" />
        </mxCell>
        <mxCell id="9lUla8cGLmMXuZO4hWIA-3" value="Gestion des&amp;nbsp;&lt;br&gt;Documents" style="shape=hexagon;perimeter=hexagonPerimeter2;whiteSpace=wrap;html=1;fixedSize=1;fillColor=#fff2cc;strokeColor=#d6b656;" vertex="1" parent="4fTbdOuplWJWy0ZnZLD6-1">
          <mxGeometry x="1150" y="170" width="120" height="80" as="geometry" />
        </mxCell>
        <mxCell id="9lUla8cGLmMXuZO4hWIA-4" value="Gestion des utilisateurs" style="shape=hexagon;perimeter=hexagonPerimeter2;whiteSpace=wrap;html=1;fixedSize=1;fillColor=#fff2cc;strokeColor=#d6b656;" vertex="1" parent="4fTbdOuplWJWy0ZnZLD6-1">
          <mxGeometry x="930" y="50" width="120" height="80" as="geometry" />
        </mxCell>
        <mxCell id="9lUla8cGLmMXuZO4hWIA-5" value="Email" style="shape=hexagon;perimeter=hexagonPerimeter2;whiteSpace=wrap;html=1;fixedSize=1;fillColor=#fff2cc;strokeColor=#d6b656;" vertex="1" parent="4fTbdOuplWJWy0ZnZLD6-1">
          <mxGeometry x="1190" y="40" width="120" height="80" as="geometry" />
        </mxCell>
        <mxCell id="9lUla8cGLmMXuZO4hWIA-6" value="Gestion de l&#39;organisation" style="shape=hexagon;perimeter=hexagonPerimeter2;whiteSpace=wrap;html=1;fixedSize=1;fillColor=#fff2cc;strokeColor=#d6b656;" vertex="1" parent="4fTbdOuplWJWy0ZnZLD6-1">
          <mxGeometry x="960" y="300" width="120" height="80" as="geometry" />
        </mxCell>
        <mxCell id="9lUla8cGLmMXuZO4hWIA-7" value="Gestion des &lt;br&gt;VisioConf" style="shape=hexagon;perimeter=hexagonPerimeter2;whiteSpace=wrap;html=1;fixedSize=1;fillColor=#f8cecc;strokeColor=#b85450;strokeWidth=3;" vertex="1" parent="4fTbdOuplWJWy0ZnZLD6-1">
          <mxGeometry x="960" y="170" width="120" height="80" as="geometry" />
        </mxCell>
        <mxCell id="EeFBVkRDWhiw40EmkgtJ-0" value="RH" style="shape=hexagon;perimeter=hexagonPerimeter2;whiteSpace=wrap;html=1;fixedSize=1;fillColor=#fff2cc;strokeColor=#d6b656;" vertex="1" parent="4fTbdOuplWJWy0ZnZLD6-1">
          <mxGeometry x="1180" y="293" width="120" height="80" as="geometry" />
        </mxCell>
        <mxCell id="EeFBVkRDWhiw40EmkgtJ-1" value="" style="endArrow=none;html=1;" edge="1" parent="4fTbdOuplWJWy0ZnZLD6-1" target="MeA2tjayVCJ_rQtpdqhV-1">
          <mxGeometry width="50" height="50" relative="1" as="geometry">
            <mxPoint x="420" y="260" as="sourcePoint" />
            <mxPoint x="490" y="233" as="targetPoint" />
          </mxGeometry>
        </mxCell>
        <mxCell id="EeFBVkRDWhiw40EmkgtJ-2" value="" style="endArrow=none;html=1;" edge="1" parent="4fTbdOuplWJWy0ZnZLD6-1" target="MeA2tjayVCJ_rQtpdqhV-1">
          <mxGeometry width="50" height="50" relative="1" as="geometry">
            <mxPoint x="420" y="180" as="sourcePoint" />
            <mxPoint x="501" y="204" as="targetPoint" />
          </mxGeometry>
        </mxCell>
        <mxCell id="EeFBVkRDWhiw40EmkgtJ-3" value="" style="endArrow=none;html=1;entryX=0;entryY=0.5;entryDx=0;entryDy=0;exitX=1.027;exitY=0.554;exitDx=0;exitDy=0;exitPerimeter=0;" edge="1" parent="4fTbdOuplWJWy0ZnZLD6-1" source="MeA2tjayVCJ_rQtpdqhV-1" target="9lUla8cGLmMXuZO4hWIA-2">
          <mxGeometry width="50" height="50" relative="1" as="geometry">
            <mxPoint x="590" y="214" as="sourcePoint" />
            <mxPoint x="580" y="219.5" as="targetPoint" />
          </mxGeometry>
        </mxCell>
        <mxCell id="EeFBVkRDWhiw40EmkgtJ-8" value="" style="endArrow=none;html=1;exitX=0.75;exitY=0;exitDx=0;exitDy=0;exitPerimeter=0;entryX=0.375;entryY=1;entryDx=0;entryDy=0;" edge="1" parent="4fTbdOuplWJWy0ZnZLD6-1" source="9lUla8cGLmMXuZO4hWIA-6" target="9lUla8cGLmMXuZO4hWIA-7">
          <mxGeometry width="50" height="50" relative="1" as="geometry">
            <mxPoint x="1060" y="365" as="sourcePoint" />
            <mxPoint x="1010" y="260" as="targetPoint" />
          </mxGeometry>
        </mxCell>
        <mxCell id="EeFBVkRDWhiw40EmkgtJ-9" value="" style="endArrow=none;html=1;entryX=0.625;entryY=1;entryDx=0;entryDy=0;" edge="1" parent="4fTbdOuplWJWy0ZnZLD6-1" target="9lUla8cGLmMXuZO4hWIA-4">
          <mxGeometry width="50" height="50" relative="1" as="geometry">
            <mxPoint x="1005" y="170" as="sourcePoint" />
            <mxPoint x="1020" y="270" as="targetPoint" />
          </mxGeometry>
        </mxCell>
        <mxCell id="EeFBVkRDWhiw40EmkgtJ-10" value="" style="endArrow=none;html=1;exitX=1;exitY=0.5;exitDx=0;exitDy=0;entryX=0;entryY=0.5;entryDx=0;entryDy=0;" edge="1" parent="4fTbdOuplWJWy0ZnZLD6-1" source="9lUla8cGLmMXuZO4hWIA-7" target="9lUla8cGLmMXuZO4hWIA-3">
          <mxGeometry width="50" height="50" relative="1" as="geometry">
            <mxPoint x="1030" y="320" as="sourcePoint" />
            <mxPoint x="1030" y="280" as="targetPoint" />
          </mxGeometry>
        </mxCell>
        <mxCell id="EeFBVkRDWhiw40EmkgtJ-11" value="" style="endArrow=none;html=1;exitX=0.575;exitY=1;exitDx=0;exitDy=0;exitPerimeter=0;entryX=0.375;entryY=0;entryDx=0;entryDy=0;" edge="1" parent="4fTbdOuplWJWy0ZnZLD6-1" source="9lUla8cGLmMXuZO4hWIA-3" target="EeFBVkRDWhiw40EmkgtJ-0">
          <mxGeometry width="50" height="50" relative="1" as="geometry">
            <mxPoint x="1090" y="310" as="sourcePoint" />
            <mxPoint x="1160" y="310" as="targetPoint" />
          </mxGeometry>
        </mxCell>
        <mxCell id="EeFBVkRDWhiw40EmkgtJ-12" value="" style="endArrow=none;html=1;exitX=0.575;exitY=1;exitDx=0;exitDy=0;exitPerimeter=0;entryX=0.625;entryY=0;entryDx=0;entryDy=0;" edge="1" parent="4fTbdOuplWJWy0ZnZLD6-1" target="9lUla8cGLmMXuZO4hWIA-3">
          <mxGeometry width="50" height="50" relative="1" as="geometry">
            <mxPoint x="1237" y="120" as="sourcePoint" />
            <mxPoint x="1243" y="163" as="targetPoint" />
          </mxGeometry>
        </mxCell>
        <mxCell id="Kk27PhnqPwjXd6HX6P_E-0" value="" style="endArrow=none;html=1;strokeWidth=1;exitX=0.858;exitY=0.025;exitDx=0;exitDy=0;exitPerimeter=0;" edge="1" parent="4fTbdOuplWJWy0ZnZLD6-1" source="9lUla8cGLmMXuZO4hWIA-6" target="9lUla8cGLmMXuZO4hWIA-3">
          <mxGeometry width="50" height="50" relative="1" as="geometry">
            <mxPoint x="1030" y="230" as="sourcePoint" />
            <mxPoint x="1080" y="180" as="targetPoint" />
          </mxGeometry>
        </mxCell>
        <mxCell id="Kk27PhnqPwjXd6HX6P_E-1" value="" style="endArrow=none;html=1;strokeWidth=1;" edge="1" parent="4fTbdOuplWJWy0ZnZLD6-1" source="9lUla8cGLmMXuZO4hWIA-4" target="9lUla8cGLmMXuZO4hWIA-3">
          <mxGeometry width="50" height="50" relative="1" as="geometry">
            <mxPoint x="1030" y="230" as="sourcePoint" />
            <mxPoint x="1080" y="180" as="targetPoint" />
          </mxGeometry>
        </mxCell>
        <mxCell id="Kk27PhnqPwjXd6HX6P_E-3" value="&lt;font style=&quot;font-size: 14px&quot;&gt;&lt;b&gt;MICROSERVICES&lt;/b&gt;&lt;/font&gt;" style="text;html=1;strokeColor=none;fillColor=none;align=center;verticalAlign=middle;whiteSpace=wrap;rounded=0;" vertex="1" parent="4fTbdOuplWJWy0ZnZLD6-1">
          <mxGeometry x="1080" y="400" width="40" height="20" as="geometry" />
        </mxCell>
        <mxCell id="Kk27PhnqPwjXd6HX6P_E-4" value="" style="endArrow=none;html=1;strokeWidth=1;exitX=1;exitY=0.5;exitDx=0;exitDy=0;entryX=0;entryY=0.5;entryDx=0;entryDy=0;" edge="1" parent="4fTbdOuplWJWy0ZnZLD6-1" source="9lUla8cGLmMXuZO4hWIA-2" target="Kk27PhnqPwjXd6HX6P_E-5">
          <mxGeometry width="50" height="50" relative="1" as="geometry">
            <mxPoint x="810" y="280" as="sourcePoint" />
            <mxPoint x="790" y="262" as="targetPoint" />
          </mxGeometry>
        </mxCell>
        <mxCell id="Kk27PhnqPwjXd6HX6P_E-5" value="(Entrée des&amp;nbsp;&lt;br&gt;Services)&lt;br&gt;&lt;br&gt;&lt;br&gt;API&amp;nbsp;&lt;br&gt;&lt;br&gt;G&lt;br&gt;A&lt;br&gt;T&lt;br&gt;E&lt;br&gt;W&lt;br&gt;A&lt;br&gt;Y" style="shape=process;whiteSpace=wrap;html=1;backgroundOutline=1;strokeWidth=1;" vertex="1" parent="4fTbdOuplWJWy0ZnZLD6-1">
          <mxGeometry x="850" y="60" width="70" height="290" as="geometry" />
        </mxCell>
      </root>
    </mxGraphModel>
  </diagram>
  <diagram id="EnPNw-xOLTbrAf3U8R11" name="Page-4">
    <mxGraphModel dx="1258" dy="467" grid="1" gridSize="10" guides="1" tooltips="1" connect="1" arrows="1" fold="1" page="1" pageScale="1" pageWidth="1654" pageHeight="2336" math="0" shadow="0">
      <root>
        <mxCell id="bT6sjzDnVI1TFIL7tKOR-0" />
        <mxCell id="bT6sjzDnVI1TFIL7tKOR-1" parent="bT6sjzDnVI1TFIL7tKOR-0" />
      </root>
    </mxGraphModel>
  </diagram>
</mxfile>
